<svg width="160" height="160" viewBox="0 0 160 160" fill="none" xmlns="http://www.w3.org/2000/svg">
<rect width="160" height="160" rx="80" fill="#413585"/>
<path d="M90.7229 30.6875H76.2812V48.9179H90.7229V30.6875Z" fill="#CDC4FF"/>
<path d="M84.595 48.5156H82.5918V49.002H84.595V48.5156Z" fill="#AB9DF6"/>
<path d="M83.9647 36.9688L81.3055 37.3592L80.3135 39.8583L81.9807 41.9672L84.6399 41.5768L85.6319 39.0775L83.9647 36.9688Z" fill="#AB9DF6"/>
<path d="M85.2091 38.5859L82.5499 38.9763L81.5547 41.4723L83.2219 43.5843L85.8843 43.1939L86.8763 40.6947L85.2091 38.5859Z" fill="#AA9DF6"/>
<path d="M84.8802 30.4453H82.877V30.8613H84.8802V30.4453Z" fill="#AB9DF6"/>
<path d="M108.999 38.0703H99.1875V59.0687H108.999V38.0703Z" fill="#AA9DF6"/>
<path d="M121.459 60.5391H109.404V80.8271H121.459V60.5391Z" fill="#AA9DF6"/>
<path d="M122.925 37.7119H134.371V19.0847H134.778V37.7119H145.373V18.6719H122.925V37.7119Z" fill="#AA9DF6"/>
<path d="M108.999 60.5391H99.1875V80.8271H108.999V60.5391Z" fill="#AA9DF6"/>
<path d="M145.369 60.5391H134.777V80.8271H145.369V60.5391Z" fill="#AA9DF6"/>
<path d="M121.459 38.0703H109.404V59.0687H121.459V38.0703Z" fill="#AA9DF6"/>
<path d="M145.369 38.0703H134.777V59.0687H145.369V38.0703Z" fill="#AA9DF6"/>
<path d="M108.999 81.1953H99.1875V99.4769H108.999V81.1953Z" fill="#AA9DF6"/>
<path d="M108.995 37.7119V19.0847H109.405V37.7119H121.46V18.6719H99.1875V37.7119H108.995Z" fill="#AA9DF6"/>
<path d="M121.459 81.1953H109.404V99.4769H121.459V81.1953Z" fill="#AA9DF6"/>
<path d="M145.369 81.1953H134.777V99.4769H145.369V81.1953Z" fill="#AA9DF6"/>
<path d="M134.371 38.0703H122.925V59.0687H134.371V38.0703Z" fill="#AA9DF6"/>
<path d="M134.371 81.1953H122.925V99.4769H134.371V81.1953Z" fill="#AA9DF6"/>
<path d="M134.371 60.5391H122.925V80.8271H134.371V60.5391Z" fill="#AA9DF6"/>
<path d="M33.1071 38.0703H23.2959V59.0687H33.1071V38.0703Z" fill="#AA9DF6"/>
<path d="M45.5681 60.5391H33.5137V80.8271H45.5681V60.5391Z" fill="#AA9DF6"/>
<path d="M47.0332 37.7119H58.4796V19.0847H58.8892V37.7119H69.4812V18.6719H47.0332V37.7119Z" fill="#AA9DF6"/>
<path d="M33.1071 60.5391H23.2959V80.8271H33.1071V60.5391Z" fill="#AA9DF6"/>
<path d="M69.4817 60.5391H58.8896V80.8271H69.4817V60.5391Z" fill="#AA9DF6"/>
<path d="M45.5681 38.0703H33.5137V59.0687H45.5681V38.0703Z" fill="#AA9DF6"/>
<path d="M69.4817 38.0703H58.8896V59.0687H69.4817V38.0703Z" fill="#AA9DF6"/>
<path d="M33.1071 81.1953H23.2959V99.4769H33.1071V81.1953Z" fill="#AA9DF6"/>
<path d="M33.1071 37.7119V19.0847H33.5135V37.7119H45.5679V18.6719H23.2959V37.7119H33.1071Z" fill="#AA9DF6"/>
<path d="M45.5681 81.1953H33.5137V99.4769H45.5681V81.1953Z" fill="#AA9DF6"/>
<path d="M69.4817 81.1953H58.8896V99.4769H69.4817V81.1953Z" fill="#AA9DF6"/>
<path d="M58.4796 38.0703H47.0332V59.0687H58.4796V38.0703Z" fill="#AA9DF6"/>
<path d="M58.4796 81.1953H47.0332V99.4769H58.4796V81.1953Z" fill="#AA9DF6"/>
<path d="M58.4796 60.5391H47.0332V80.8271H58.4796V60.5391Z" fill="#AA9DF6"/>
<path d="M122.326 131.852V141.256H136.08H151.248V131.852H122.326Z" fill="#CDC4FF"/>
<path d="M121.113 129.219V131.849H152.259V129.219H136.08H121.113Z" fill="#AB9DF6"/>
<path d="M136.688 141.254H151.248V131.849H152.259V129.219H136.08V131.606L136.688 141.254Z" fill="#AB9DF6"/>
<path d="M132.24 133.367H126.374V134.782H132.24V133.367Z" fill="#AB9DF6"/>
<path d="M133.152 136.547H125.619V139.536H133.152V136.547Z" fill="#AA9DF6"/>
<path d="M129.472 118.837L129.431 115.305L141.818 116.364L142.205 119.861L129.472 118.837Z" fill="#CDC4FF"/>
<path d="M132.146 116.905L132.092 117.539L139.839 118.202L139.894 117.567L132.146 116.905Z" fill="#AB9DF6"/>
<path d="M127.997 115.481L127.99 111.945L140.368 113.139L140.681 116.301L127.997 115.481Z" fill="#AB9DF6"/>
<path d="M127.994 112.422L127.987 114.806L140.045 115.695L139.843 113.494L127.994 112.422Z" fill="#AA9DF6"/>
<path d="M139.13 114.419C138.984 114.432 138.837 114.432 138.691 114.419L137.507 114.326C136.506 114.24 135.127 114.112 133.6 113.958C132.074 113.804 130.698 113.654 129.699 113.539L128.519 113.392C128.373 113.382 128.23 113.356 128.09 113.315C128.235 113.301 128.38 113.301 128.525 113.315L129.709 113.408C130.711 113.494 132.093 113.625 133.616 113.779C135.139 113.932 136.522 114.08 137.52 114.198L138.701 114.342C138.846 114.352 138.99 114.378 139.13 114.419Z" fill="#AA9DF6"/>
<path d="M139.104 114.711C138.958 114.727 138.811 114.727 138.665 114.711L137.465 114.654C136.457 114.599 135.062 114.513 133.523 114.404C131.984 114.295 130.589 114.19 129.581 114.107L128.39 113.998C128.243 113.991 128.098 113.97 127.955 113.934C128.101 113.918 128.248 113.918 128.393 113.934L129.59 113.991C130.601 114.046 131.997 114.135 133.536 114.241C135.075 114.347 136.467 114.455 137.475 114.542L138.669 114.651C138.815 114.658 138.961 114.678 139.104 114.711Z" fill="#AA9DF6"/>
<path d="M129.616 122.099L129.568 118.562L141.959 119.612L142.311 122.767L129.616 122.099Z" fill="#AB9DF6"/>
<path d="M130.979 122.168C130.875 121.593 130.825 121.011 130.828 120.427C130.776 119.845 130.782 119.26 130.844 118.68C130.948 119.254 130.999 119.837 130.995 120.42C131.047 121.002 131.041 121.587 130.979 122.168Z" fill="#AA9DF6"/>
<path d="M131.446 118.727C131.54 119.301 131.581 119.882 131.567 120.464C131.606 121.045 131.591 121.627 131.523 122.205C131.425 121.631 131.384 121.049 131.401 120.467C131.361 119.887 131.376 119.304 131.446 118.727Z" fill="#AA9DF6"/>
<path d="M132.572 120.273C134.732 120.513 137.273 120.648 139.468 120.843Z" fill="#AA9DF6"/>
<path d="M139.468 120.846C139.13 120.866 138.791 120.858 138.454 120.821C137.814 120.789 136.966 120.734 136.012 120.664C135.059 120.593 134.198 120.513 133.577 120.437C133.238 120.416 132.901 120.362 132.572 120.277C132.911 120.266 133.25 120.281 133.587 120.321L136.025 120.497C136.985 120.568 137.839 120.638 138.463 120.705C138.802 120.724 139.138 120.771 139.468 120.846Z" fill="#AA9DF6"/>
<path d="M140.371 122.665C140.265 122.145 140.212 121.615 140.211 121.084C140.156 120.552 140.156 120.016 140.211 119.484C140.319 120.004 140.372 120.534 140.371 121.065C140.43 121.597 140.43 122.133 140.371 122.665Z" fill="#AA9DF6"/>
<path d="M141.136 122.702C140.918 121.659 140.811 120.597 140.816 119.531C140.951 120.047 141.032 120.576 141.056 121.109C141.137 121.636 141.164 122.17 141.136 122.702Z" fill="#AA9DF6"/>
<path d="M134.4 121.07C135.764 121.163 136.804 121.23 137.892 121.256Z" fill="#AA9DF6"/>
<path d="M137.92 121.251C136.753 121.301 135.584 121.239 134.429 121.066C135.011 121.009 135.597 121.009 136.179 121.066C136.764 121.073 137.347 121.135 137.92 121.251Z" fill="#AA9DF6"/>
<path d="M130.444 128.998L130.214 125.469L142.639 125.862L143.158 128.995L130.444 128.998Z" fill="#CDC4FF"/>
<path d="M130.937 128.553L143.03 128.38L142.694 126.185L130.71 125.961L130.937 128.553Z" fill="#AA9DF6"/>
<path d="M130.784 125.544L130.669 122.008L143.079 122.817L143.491 125.966L130.784 125.544Z" fill="#AA9DF6"/>
<path d="M133.409 123.552L133.368 124.188L141.128 124.692L141.169 124.057L133.409 123.552Z" fill="#AB9DF6"/>
<path d="M142.819 127.095C142.662 127.121 142.502 127.133 142.343 127.13L141.063 127.162C139.971 127.181 138.461 127.197 136.794 127.203C135.127 127.21 133.619 127.203 132.525 127.203L131.245 127.181C131.087 127.186 130.928 127.176 130.771 127.152C130.928 127.125 131.086 127.114 131.245 127.117L132.525 127.085C133.616 127.066 135.127 127.053 136.794 127.043C138.461 127.034 139.971 127.043 141.063 127.043L142.359 127.066C142.513 127.062 142.667 127.072 142.819 127.095Z" fill="#CDC4FF"/>
<path d="M142.96 127.774C142.802 127.799 142.642 127.808 142.483 127.8H141.177C140.08 127.8 138.56 127.8 136.88 127.764C135.2 127.729 133.68 127.71 132.582 127.681L131.28 127.636C131.12 127.64 130.96 127.627 130.803 127.598C130.961 127.575 131.12 127.566 131.28 127.572H132.582C133.683 127.572 135.203 127.572 136.883 127.608C138.563 127.643 140.083 127.662 141.18 127.691L142.483 127.736C142.642 127.736 142.802 127.749 142.96 127.774Z" fill="#CDC4FF"/>
<path d="M148.854 141.255C148.854 141.303 118.026 141.338 80.0031 141.338C41.9807 141.338 11.1455 141.303 11.1455 141.255C11.1455 141.207 41.9679 141.172 80.0031 141.172C118.038 141.172 148.854 141.21 148.854 141.255Z" fill="#251E4E"/>
<path d="M21.7597 101.52C20.0669 101.792 19.3085 103.872 19.4557 105.58C19.6029 107.289 20.3069 108.96 20.1181 110.665C19.8813 112.828 18.2429 114.659 18.0541 116.828C17.8301 119.388 19.6541 121.657 20.1789 124.169C20.4413 125.392 20.4061 126.681 20.8605 127.846C21.248 128.837 21.9671 129.663 22.8953 130.183C23.8234 130.703 24.9032 130.885 25.9505 130.698C26.9979 130.511 27.9481 129.967 28.6392 129.158C29.3302 128.349 29.7195 127.326 29.7405 126.262C29.7757 124.297 28.5661 122.444 28.7133 120.486C28.8221 119.036 29.6733 117.664 29.4877 116.224C29.2701 114.508 27.6829 113.292 27.1229 111.657C26.5629 110.022 27.1005 108.22 26.9053 106.502C26.5597 103.42 24.8413 101.27 21.7597 101.52Z" fill="#FFC001"/>
<path d="M13.1009 116.441C12.8001 119.295 14.0801 122.655 15.5457 125.119C17.035 127.602 19.2767 129.546 21.9457 130.668C22.2433 130.793 22.6145 130.895 22.8673 130.694C22.9561 130.595 23.023 130.479 23.0632 130.352C23.1035 130.226 23.1164 130.092 23.1009 129.961C23.1202 126.929 22.1569 123.973 20.3553 121.535C18.5537 119.098 16.0107 117.309 13.1073 116.438" fill="#FFC001"/>
<g opacity="0.1">
<path d="M13.1009 116.441C12.8001 119.295 14.0801 122.655 15.5457 125.119C17.035 127.602 19.2767 129.546 21.9457 130.668C22.2433 130.793 22.6145 130.895 22.8673 130.694C22.9561 130.595 23.023 130.479 23.0632 130.352C23.1035 130.226 23.1164 130.092 23.1009 129.961C23.1202 126.929 22.1569 123.973 20.3553 121.535C18.5537 119.098 16.0107 117.309 13.1073 116.438" fill="black"/>
</g>
<path d="M25.5428 136.643C25.5085 136.595 25.4805 136.542 25.4596 136.487C25.4084 136.362 25.338 136.208 25.258 136.019C25.0852 135.61 24.8292 135.024 24.5028 134.301C23.8628 132.861 22.8836 130.899 21.6676 128.813C20.624 127.036 19.4919 125.312 18.2756 123.648C17.8084 123.008 17.4212 122.499 17.1524 122.151L16.8324 121.741C16.762 121.648 16.7268 121.597 16.7332 121.594C16.7783 121.633 16.82 121.676 16.858 121.722L17.178 122.109C17.466 122.448 17.866 122.951 18.346 123.581C19.5929 125.229 20.7416 126.949 21.786 128.733C22.8273 130.517 23.7623 132.362 24.586 134.256C24.906 134.983 25.1396 135.578 25.2932 135.994L25.4692 136.474C25.4991 136.528 25.5237 136.585 25.5428 136.643Z" fill="#251E4E"/>
<path d="M23.702 109.414C23.7199 109.505 23.7306 109.597 23.734 109.689C23.7468 109.883 23.766 110.146 23.7916 110.476C23.8364 111.174 23.9004 112.16 23.9772 113.356C24.1308 115.801 24.3484 119.174 24.6172 122.902C24.886 126.63 25.1388 130 25.3276 132.441C25.4204 133.651 25.494 134.633 25.5484 135.321C25.5708 135.641 25.5868 135.913 25.6028 136.105C25.6106 136.197 25.6106 136.289 25.6028 136.38C25.5816 136.291 25.5677 136.2 25.5612 136.108C25.542 135.916 25.5132 135.654 25.478 135.324C25.414 134.627 25.3212 133.644 25.206 132.444C24.9884 130.006 24.71 126.633 24.4476 122.905C24.1852 119.177 23.9996 115.836 23.862 113.376C23.8076 112.163 23.7596 111.177 23.7276 110.48C23.7276 110.16 23.7084 109.884 23.702 109.692C23.6957 109.6 23.6957 109.507 23.702 109.414Z" fill="#251E4E"/>
<path d="M21.0752 132.57H28.2272V137.822C28.2272 138.731 27.8658 139.604 27.2225 140.247C26.5791 140.89 25.7066 141.252 24.7968 141.252C23.918 141.252 23.0724 140.916 22.4342 140.312C21.7961 139.707 21.4139 138.881 21.3664 138.004L21.0752 132.57Z" fill="#342B69"/>
<path d="M114.215 89.3679C113.817 89.0736 113.326 88.9327 112.832 88.9711C112.832 88.7023 112.832 88.5391 112.832 88.5391H105.28C105.28 88.5391 105.043 93.5215 108.858 93.6975C110.567 93.7775 111.543 93.0127 112.103 92.0495C112.384 92.1161 112.671 92.1515 112.96 92.1551C113.382 92.1737 113.798 92.0558 114.147 91.8191C114.34 91.6685 114.492 91.4731 114.592 91.2499C114.691 91.0268 114.734 90.7827 114.717 90.5391C114.728 90.3185 114.688 90.0985 114.601 89.8956C114.514 89.6927 114.382 89.5122 114.215 89.3679ZM113.696 91.2207C113.376 91.4607 112.797 91.4255 112.416 91.3583C112.606 90.8284 112.73 90.277 112.784 89.7167C113.115 89.6784 113.449 89.7565 113.728 89.9375C113.81 90.0134 113.873 90.1072 113.913 90.2115C113.953 90.3158 113.969 90.4278 113.959 90.5391C113.973 90.6654 113.957 90.7935 113.912 90.9123C113.866 91.031 113.792 91.1369 113.696 91.2207Z" fill="#FFC001"/>
<path d="M110.614 88.0871C110.652 88.031 110.674 87.9659 110.678 87.8984C110.667 87.802 110.632 87.7101 110.576 87.6308C110.52 87.5515 110.445 87.4873 110.358 87.4439C110.231 87.3822 110.097 87.336 109.958 87.3063C109.784 87.2683 109.619 87.1942 109.475 87.0888C109.395 87.0192 109.332 86.933 109.29 86.8362C109.247 86.7394 109.226 86.6345 109.229 86.5288C109.229 86.2957 109.295 86.0675 109.418 85.8696C109.677 85.4504 110.144 85.1848 110.474 84.7688C110.639 84.5411 110.75 84.2782 110.797 84.0007C110.844 83.7231 110.827 83.4383 110.746 83.1688C110.666 82.8759 110.513 82.6082 110.301 82.3912C110.06 82.1794 109.788 82.0067 109.494 81.8792C109.166 81.7441 108.874 81.5349 108.64 81.2679C108.528 81.1183 108.452 80.9455 108.416 80.7623C108.373 80.5697 108.399 80.3682 108.49 80.1927C108.54 80.1024 108.611 80.0255 108.698 79.9688L108.784 80.1127C108.51 80.2834 108.294 80.5331 108.164 80.829C108.034 81.1248 107.997 81.453 108.058 81.7703C108.11 82.0715 108.258 82.3477 108.48 82.5575C108.73 82.7489 108.951 82.9752 109.136 83.2296C109.214 83.3724 109.252 83.534 109.245 83.6967C109.24 83.858 109.197 84.0159 109.12 84.1575C108.979 84.4085 108.779 84.6215 108.538 84.7783C108.074 85.0727 107.597 85.22 107.242 85.4888C107.081 85.6033 106.947 85.7513 106.849 85.9226C106.752 86.0938 106.692 86.2843 106.675 86.4808C106.645 86.7802 106.697 87.0822 106.826 87.3543C106.943 87.5837 107.11 87.7838 107.315 87.94L107.267 87.9175C107.224 87.8929 107.182 87.8651 107.142 87.8343C106.986 87.7133 106.858 87.5593 106.768 87.3831C106.623 87.1021 106.56 86.7862 106.586 86.4712C106.599 86.2727 106.653 86.0791 106.742 85.9016C106.846 85.7036 106.993 85.531 107.171 85.3959C107.539 85.1079 108.029 84.9479 108.451 84.6663C108.671 84.5183 108.852 84.321 108.982 84.0904C109.049 83.9734 109.084 83.841 109.084 83.7063C109.084 83.5717 109.049 83.4393 108.982 83.3224C108.799 83.0812 108.584 82.8659 108.342 82.6824C108.094 82.4486 107.931 82.139 107.878 81.8023C107.812 81.4515 107.854 81.0888 107.998 80.762C108.141 80.4353 108.381 80.1598 108.685 79.9719L108.768 80.1159C108.705 80.1581 108.653 80.2139 108.614 80.2792C108.556 80.428 108.538 80.5898 108.563 80.7479C108.587 80.9059 108.654 81.0545 108.755 81.1783C108.974 81.423 109.245 81.6155 109.549 81.7415C109.858 81.8765 110.143 82.0602 110.394 82.2855C110.624 82.5222 110.789 82.8143 110.874 83.1335C110.956 83.4258 110.971 83.7332 110.915 84.0318C110.86 84.3305 110.736 84.6122 110.554 84.8551C110.192 85.2935 109.731 85.5496 109.491 85.9304C109.251 86.3112 109.229 86.7912 109.507 87.0184C109.786 87.2456 110.147 87.2391 110.365 87.3863C110.458 87.4364 110.537 87.51 110.593 87.5998C110.649 87.6896 110.681 87.7925 110.685 87.8984C110.682 87.9527 110.663 88.005 110.63 88.0488C110.63 88.0776 110.618 88.0871 110.614 88.0871Z" fill="#251E4E"/>
<path d="M63.5396 48.5859H26.7172C26.1464 48.5859 25.6836 49.0487 25.6836 49.6195V58.4547C25.6836 59.0256 26.1464 59.4883 26.7172 59.4883H63.5396C64.1104 59.4883 64.5732 59.0256 64.5732 58.4547V49.6195C64.5732 49.0487 64.1104 48.5859 63.5396 48.5859Z" fill="#342B69"/>
<path d="M33.8817 55.8593C33.5884 56.2242 33.1935 56.494 32.7469 56.6346C32.3003 56.7751 31.822 56.7802 31.3726 56.649C30.9231 56.5178 30.5226 56.2563 30.2217 55.8976C29.9208 55.5389 29.733 55.099 29.682 54.6336C29.6311 54.1682 29.7192 53.6981 29.9354 53.2827C30.1515 52.8674 30.4859 52.5254 30.8963 52.3001C31.3067 52.0748 31.7747 51.9761 32.2412 52.0167C32.7076 52.0573 33.1516 52.2352 33.5169 52.5281C33.7598 52.7227 33.9619 52.9633 34.1117 53.2361C34.2615 53.509 34.356 53.8086 34.3899 54.118C34.4238 54.4274 34.3963 54.7405 34.3091 55.0392C34.2219 55.338 34.0767 55.6167 33.8817 55.8593Z" fill="#AA9DF6"/>
<path d="M33.3666 53.5703C32.9805 54.0621 32.5522 54.5193 32.0866 54.9367C31.9778 55.0391 31.8722 55.1383 31.7666 55.2375L31.709 55.2951L31.6514 55.2375C31.2964 54.9132 30.9748 54.554 30.6914 54.1655C31.0799 54.4489 31.439 54.7705 31.7634 55.1255H31.6482L31.9682 54.8055C32.3972 54.3536 32.8652 53.9403 33.3666 53.5703Z" fill="#FFC001"/>
<path d="M60.7814 53.2394C60.7814 53.2842 55.8374 53.3226 49.7382 53.3226C43.639 53.3226 38.6982 53.2842 38.6982 53.2394C38.6982 53.1946 43.639 53.1562 49.7382 53.1562C55.8374 53.1562 60.7814 53.1914 60.7814 53.2394Z" fill="#AA9DF6"/>
<path d="M51.7222 55.3957C51.7222 55.4405 48.8646 55.4789 45.3414 55.4789C41.8182 55.4789 38.9414 55.4405 38.9414 55.3957C38.9414 55.3509 41.799 55.3125 45.3414 55.3125C48.8838 55.3125 51.7222 55.3637 51.7222 55.3957Z" fill="#AA9DF6"/>
<path d="M63.5396 61.0547H26.7172C26.1464 61.0547 25.6836 61.5174 25.6836 62.0883V70.9235C25.6836 71.4943 26.1464 71.9571 26.7172 71.9571H63.5396C64.1104 71.9571 64.5732 71.4943 64.5732 70.9235V62.0883C64.5732 61.5174 64.1104 61.0547 63.5396 61.0547Z" fill="#342B69"/>
<path d="M33.8817 68.328C33.5884 68.693 33.1935 68.9628 32.7469 69.1033C32.3003 69.2439 31.822 69.2489 31.3726 69.1177C30.9231 68.9866 30.5226 68.7251 30.2217 68.3664C29.9208 68.0076 29.733 67.5678 29.682 67.1023C29.6311 66.6369 29.7192 66.1668 29.9354 65.7515C30.1515 65.3361 30.4859 64.9942 30.8963 64.7689C31.3067 64.5435 31.7747 64.4449 32.2412 64.4855C32.7076 64.526 33.1516 64.704 33.5169 64.9968C34.0067 65.3904 34.3202 65.9623 34.3886 66.5869C34.457 67.2115 34.2747 67.8377 33.8817 68.328Z" fill="#AA9DF6"/>
<path d="M33.3666 66.0391C32.9809 66.5302 32.5525 66.9864 32.0866 67.4023L31.7666 67.7223L31.709 67.7767L31.6514 67.7191C31.2964 67.3947 30.9748 67.0356 30.6914 66.6471C31.0792 66.9313 31.4383 67.2528 31.7634 67.6071H31.6482L31.9682 67.2871C32.3956 66.8296 32.8637 66.4119 33.3666 66.0391Z" fill="#FFC001"/>
<path d="M60.7814 65.7082C60.7814 65.7562 55.8374 65.7914 49.7382 65.7914C43.639 65.7914 38.6982 65.7562 38.6982 65.7082C38.6982 65.6602 43.639 65.625 49.7382 65.625C55.8374 65.625 60.7814 65.6634 60.7814 65.7082Z" fill="#AA9DF6"/>
<path d="M51.7222 67.8645C51.7222 67.9125 48.8646 67.9477 45.3414 67.9477C41.8182 67.9477 38.9414 67.9125 38.9414 67.8645C38.9414 67.8165 41.799 67.7812 45.3414 67.7812C48.8838 67.7812 51.7222 67.8197 51.7222 67.8645Z" fill="#AA9DF6"/>
<path d="M63.5396 73.5312H26.7172C26.1464 73.5312 25.6836 73.994 25.6836 74.5648V83.4C25.6836 83.9709 26.1464 84.4336 26.7172 84.4336H63.5396C64.1104 84.4336 64.5732 83.9709 64.5732 83.4V74.5648C64.5732 73.994 64.1104 73.5312 63.5396 73.5312Z" fill="#342B69"/>
<path d="M33.8817 80.7968C33.5884 81.1617 33.1935 81.4315 32.7469 81.5721C32.3003 81.7126 31.822 81.7177 31.3726 81.5865C30.9231 81.4553 30.5226 81.1938 30.2217 80.8351C29.9208 80.4764 29.733 80.0365 29.682 79.5711C29.6311 79.1057 29.7192 78.6356 29.9354 78.2202C30.1515 77.8049 30.4859 77.4629 30.8963 77.2376C31.3067 77.0123 31.7747 76.9136 32.2412 76.9542C32.7076 76.9948 33.1516 77.1727 33.5169 77.4656C33.7598 77.6602 33.9619 77.9008 34.1117 78.1736C34.2615 78.4465 34.356 78.7461 34.3899 79.0555C34.4238 79.3649 34.3963 79.678 34.3091 79.9767C34.2219 80.2755 34.0767 80.5542 33.8817 80.7968Z" fill="#AA9DF6"/>
<path d="M33.3666 78.5156C32.9824 79.0091 32.5539 79.4664 32.0866 79.882L31.7666 80.1828L31.709 80.2404L31.6514 80.1828C31.2964 79.8585 30.9748 79.4993 30.6914 79.1108C31.0799 79.3942 31.439 79.7158 31.7634 80.0708H31.6482L31.9682 79.7508C32.3972 79.2989 32.8652 78.8856 33.3666 78.5156Z" fill="#FFC001"/>
<path d="M60.7814 78.1848C60.7814 78.2296 55.8374 78.268 49.7382 78.268C43.639 78.268 38.6982 78.2296 38.6982 78.1848C38.6982 78.14 43.639 78.1016 49.7382 78.1016C55.8374 78.1016 60.7814 78.14 60.7814 78.1848Z" fill="#AA9DF6"/>
<path d="M51.7222 80.341C51.7222 80.3858 48.8646 80.4242 45.3414 80.4242C41.8182 80.4242 38.9414 80.3858 38.9414 80.341C38.9414 80.2962 41.799 80.2578 45.3414 80.2578C48.8838 80.2578 51.7222 80.2962 51.7222 80.341Z" fill="#AA9DF6"/>
<path d="M86.6139 114.805L86.0027 141.246H84.8379L84.9115 114.872L86.6139 114.805Z" fill="#251E4E"/>
<path d="M90.8291 114.516L96.4995 141.252H97.7987L93.0787 114.516H90.8291Z" fill="#251E4E"/>
<path d="M80.1984 114.812L73.9232 141.254H72.624L78.3168 114.703L80.1984 114.812Z" fill="#251E4E"/>
<path d="M98.1916 85.7431C98.1916 85.7431 105.379 85.3335 104.662 93.6503C103.945 101.967 103.532 110.402 100.86 113.282C98.1884 116.162 71.2828 116.262 69.0236 113.9C66.7644 111.538 73.3372 111.641 74.5692 111.641C75.8012 111.641 83.4012 112.358 85.8652 105.881C88.3292 99.4039 87.7148 85.3335 98.1916 85.7431Z" fill="#251E4E"/>
<path d="M98.6523 85.7578C98.6523 85.7578 104.147 86.8842 103.635 92.6346C103.123 98.385 101.683 108.452 99.0107 111.019C96.3387 113.585 85.8907 114.145 80.2171 113.793C73.6443 113.38 69.4971 112.129 69.4971 112.129C69.4971 112.129 68.2971 112.9 68.6587 113.409C69.0203 113.918 72.2267 115.905 87.7627 115.572C103.299 115.239 102.22 112.948 102.864 110.452C103.507 107.956 104.864 94.5994 104.675 91.665C104.486 88.7306 103.008 86.257 98.6523 85.7578Z" fill="#342B69"/>
<path d="M83.2156 61.3521C84.0803 61.054 85.0191 61.0492 85.8868 61.3385C86.7545 61.6277 87.5027 62.1948 88.0156 62.9521C88.71 64.0273 88.8732 65.3777 89.5804 66.4433C90.0828 67.1953 90.8252 67.7489 91.4396 68.4145C92.054 69.0801 92.5564 69.9601 92.3996 70.8529C92.2524 71.6881 91.5452 72.4305 91.686 73.2689C91.8204 74.0529 92.646 74.5649 92.822 75.3457C93.0108 76.2641 92.1276 77.1217 91.1996 77.2657C90.2716 77.4097 89.35 77.0513 88.4764 76.7057C87.6028 76.3601 86.6748 76.0145 85.75 76.1809C84.678 76.3761 83.8556 77.2177 82.918 77.7809C81.9294 78.3458 80.7978 78.6105 79.6613 78.5429C78.5248 78.4753 77.4325 78.0782 76.518 77.4001C75.814 76.8593 75.1964 76.0209 75.3692 75.1601C75.5292 74.3473 76.3292 73.7841 76.5404 72.9873C76.8796 71.8033 75.9004 70.5937 76.0444 69.3681C76.2428 67.7233 78.2844 66.9713 79.014 65.4865C79.3692 64.7729 79.4012 63.9409 79.7116 63.2081C80.022 62.4753 80.8412 61.8225 81.5708 62.1361" fill="#251E4E"/>
<path d="M82.5242 76.3196C82.6298 75.734 82.441 73.27 82.441 73.27C82.441 73.27 80.2586 72.9948 80.1626 70.7644C80.0666 68.534 80.2906 63.4044 80.2906 63.4044L84.313 61.4844L87.833 65.4844L87.9002 76.2972L82.5242 76.3196Z" fill="#FFBE9D"/>
<path d="M80.5762 67.3363C80.5768 67.3909 80.5935 67.4442 80.6242 67.4894C80.6549 67.5346 80.6982 67.5698 80.7488 67.5905C80.7994 67.6113 80.8549 67.6167 80.9085 67.6061C80.9621 67.5955 81.0114 67.5694 81.0503 67.531C81.0892 67.4926 81.1158 67.4435 81.127 67.3901C81.1382 67.3366 81.1334 67.281 81.1133 67.2302C81.0931 67.1794 81.0584 67.1357 81.0135 67.1045C80.9687 67.0733 80.9156 67.0559 80.861 67.0547C80.786 67.0547 80.714 67.0842 80.6607 67.137C80.6074 67.1897 80.577 67.2613 80.5762 67.3363Z" fill="#251E4E"/>
<path d="M80.3968 66.8367C80.432 66.8751 80.6432 66.6991 80.9408 66.6863C81.2384 66.6735 81.4624 66.8271 81.4944 66.7855C81.5264 66.7439 81.4752 66.6991 81.376 66.6287C81.2462 66.5382 81.0901 66.4933 80.9321 66.5008C80.7741 66.5083 80.623 66.5679 80.5024 66.6703C80.4096 66.7471 80.3808 66.8207 80.3968 66.8367Z" fill="#251E4E"/>
<path d="M83.8395 67.3395C83.8353 67.3783 83.8394 67.4176 83.8514 67.4548C83.8634 67.492 83.883 67.5262 83.9092 67.5553C83.9353 67.5843 83.9672 67.6076 84.0029 67.6235C84.0386 67.6394 84.0772 67.6477 84.1163 67.6477C84.1554 67.6477 84.194 67.6394 84.2297 67.6235C84.2654 67.6076 84.2973 67.5843 84.3234 67.5553C84.3495 67.5262 84.3692 67.492 84.3812 67.4548C84.3932 67.4176 84.3973 67.3783 84.3931 67.3395C84.3973 67.3006 84.3932 67.2613 84.3812 67.2241C84.3692 67.1869 84.3495 67.1527 84.3234 67.1236C84.2973 67.0946 84.2654 67.0713 84.2297 67.0554C84.194 67.0395 84.1554 67.0312 84.1163 67.0312C84.0772 67.0312 84.0386 67.0395 84.0029 67.0554C83.9672 67.0713 83.9353 67.0946 83.9092 67.1236C83.883 67.1527 83.8634 67.1869 83.8514 67.2241C83.8394 67.2613 83.8353 67.3006 83.8395 67.3395Z" fill="#251E4E"/>
<path d="M83.712 66.8992C83.7472 66.9376 83.9584 66.7616 84.256 66.7488C84.5536 66.736 84.7776 66.8896 84.8096 66.848C84.8416 66.8064 84.7904 66.7616 84.6912 66.6912C84.562 66.6012 84.4068 66.5562 84.2496 66.5632C84.0914 66.5708 83.9399 66.6291 83.8176 66.7296C83.728 66.8096 83.696 66.88 83.712 66.8992Z" fill="#251E4E"/>
<path d="M82.5881 69.4739C82.4302 69.4269 82.2665 69.4021 82.1017 69.4003C82.0249 69.4003 81.9513 69.3811 81.9385 69.3267C81.9314 69.2417 81.948 69.1564 81.9865 69.0803C82.0537 68.8819 82.1273 68.6707 82.2009 68.4403C82.4015 67.9022 82.563 67.3504 82.6841 66.7891C82.442 67.3062 82.2398 67.8411 82.0793 68.3891C82.0089 68.6131 81.9385 68.8243 81.8713 69.0291C81.8268 69.1296 81.8156 69.2417 81.8393 69.3491C81.8495 69.3773 81.8665 69.4026 81.8889 69.4227C81.9112 69.4428 81.9381 69.4571 81.9673 69.4643C82.0098 69.4701 82.0528 69.4701 82.0953 69.4643C82.2583 69.4911 82.4242 69.4944 82.5881 69.4739Z" fill="#251E4E"/>
<path d="M82.4414 73.2803C83.4743 73.2467 84.475 72.9132 85.3214 72.3203C85.3214 72.3203 84.643 73.9459 82.467 73.8147L82.4414 73.2803Z" fill="#EB996E"/>
<path d="M82.6972 70.2599C82.7155 70.1656 82.7566 70.0773 82.8168 70.0026C82.877 69.9278 82.9546 69.869 83.0428 69.8311C83.1036 69.8034 83.1696 69.7891 83.2364 69.7891C83.3032 69.7891 83.3692 69.8034 83.43 69.8311C83.4885 69.8601 83.5367 69.9063 83.5682 69.9635C83.5996 70.0207 83.6128 70.0861 83.606 70.1511C83.588 70.2257 83.5477 70.2932 83.4906 70.3446C83.4335 70.396 83.3622 70.4289 83.286 70.4391C83.1371 70.4588 82.9858 70.4479 82.8412 70.4071C82.8005 70.4007 82.7614 70.3866 82.726 70.3655C82.7086 70.3545 82.6948 70.3386 82.6862 70.3198C82.6777 70.3011 82.6748 70.2802 82.678 70.2599" fill="#EB996E"/>
<path d="M83.4402 69.461C83.4594 69.461 83.4946 69.541 83.485 69.685C83.467 69.8778 83.3794 70.0576 83.2386 70.1906C83.0989 70.3228 82.9156 70.3991 82.7234 70.405C82.5762 70.405 82.493 70.3666 82.4994 70.3474C82.5058 70.3282 82.8482 70.3282 83.1234 70.069C83.3986 69.8098 83.3922 69.4578 83.4402 69.461Z" fill="#251E4E"/>
<path d="M80.1084 63.1524C80.1886 63.7985 80.5016 64.3931 80.9887 64.8248C81.4759 65.2566 82.1038 65.496 82.7548 65.498L82.15 64.1668C82.6876 64.7908 83.2444 65.4468 83.9836 65.8052C84.7228 66.1636 85.686 66.2212 86.3132 65.6836C86.518 66.2308 86.5148 66.8356 86.7036 67.386C86.8924 67.9364 87.3436 70.2148 87.9068 70.1252C88.47 70.0356 88.8124 67.754 88.9468 67.2452C89.1083 66.5218 89.0978 65.7705 88.9161 65.0519C88.7343 64.3332 88.3864 63.6673 87.9004 63.1076C87.3275 62.4396 86.6073 61.9138 85.7965 61.5717C84.9858 61.2297 84.1066 61.0806 83.2284 61.1364C82.4454 61.171 81.6903 61.4371 81.0588 61.9012C80.5194 62.3315 80.1434 62.9334 79.9932 63.6068" fill="#251E4E"/>
<path d="M77.1196 73.1985C77.0669 73.195 77.015 73.1831 76.966 73.1633C76.8238 73.1202 76.6865 73.0623 76.5564 72.9905C76.0675 72.7296 75.6633 72.3343 75.3916 71.8513C75.1811 71.4946 75.0534 71.0952 75.018 70.6826C74.9825 70.27 75.0402 69.8546 75.1868 69.4673C75.3602 69.0094 75.6399 68.5992 76.0028 68.2705C76.392 67.9166 76.8697 67.6744 77.3852 67.5697C77.6245 67.5359 77.8478 67.4298 78.0252 67.2657C78.1746 67.0847 78.2611 66.8601 78.2716 66.6257C78.31 66.1553 78.1244 65.6977 78.0732 65.2369C78.0174 64.7934 78.1084 64.3438 78.3324 63.9569C78.5292 63.6218 78.8165 63.349 79.1612 63.1697C79.4812 63.0065 79.766 62.9009 80.0124 62.7921C80.2283 62.7081 80.4343 62.6008 80.6268 62.4721C80.7844 62.3551 80.9254 62.2173 81.046 62.0625C81.0283 62.1117 81.0035 62.158 80.9724 62.2001C80.8851 62.3245 80.7769 62.4328 80.6524 62.5201C80.4618 62.6615 80.2557 62.7807 80.038 62.8753C79.7916 62.9905 79.5004 63.1057 79.206 63.2689C78.8851 63.4437 78.62 63.7054 78.4412 64.0241C78.234 64.3865 78.153 64.8075 78.2108 65.2209C78.262 65.6593 78.4572 66.1169 78.422 66.6417C78.4113 66.9143 78.31 67.1756 78.134 67.3841C77.9337 67.5737 77.6803 67.6977 77.4076 67.7393C76.9366 67.8385 76.498 68.0543 76.1318 68.3668C75.7656 68.6792 75.4837 69.0785 75.3116 69.5281C75.1702 69.8955 75.1114 70.2896 75.1397 70.6823C75.1679 71.075 75.2823 71.4567 75.4748 71.8001C75.7304 72.2723 76.1084 72.6669 76.5692 72.9425C76.9084 73.1281 77.1196 73.1825 77.1196 73.1985Z" fill="#251E4E"/>
<path d="M91.6059 76.1325C91.6059 76.1325 91.7947 76.0045 92.1243 75.7677C92.6016 75.4517 92.9807 75.0083 93.2187 74.4877C93.3643 74.1264 93.3868 73.7272 93.2827 73.3517C93.2249 73.1485 93.1145 72.9642 92.9627 72.8173C92.7898 72.6658 92.5984 72.5368 92.3931 72.4333C92.1568 72.3064 91.9576 72.1202 91.8151 71.8929C91.6726 71.6657 91.5917 71.4053 91.5803 71.1373C91.5579 70.5581 91.9163 70.0781 92.0443 69.5629C92.1534 69.045 92.068 68.5051 91.8043 68.0461C91.5606 67.6091 91.2346 67.2233 90.8443 66.9101C90.1115 66.2957 89.3467 65.8445 88.8187 65.3101C88.3836 64.9125 88.0594 64.4085 87.8779 63.8477C87.8342 63.6944 87.8084 63.5366 87.8011 63.3773C87.7929 63.3222 87.7929 63.2661 87.8011 63.2109C87.8277 63.4198 87.8704 63.6263 87.9291 63.8285C88.1293 64.3665 88.459 64.8468 88.8891 65.2269C89.4139 65.7293 90.1691 66.1613 90.9307 66.7853C91.3349 67.1091 91.6728 67.5079 91.9259 67.9597C92.2125 68.4537 92.3049 69.0366 92.1851 69.5949C92.0379 70.1549 91.6955 70.6157 91.7211 71.1245C91.729 71.3732 91.8036 71.6151 91.937 71.8251C92.0704 72.0351 92.2578 72.2053 92.4795 72.3181C92.6952 72.4293 92.8962 72.5669 93.0779 72.7277C93.2429 72.8952 93.362 73.1024 93.4235 73.3293C93.5286 73.733 93.4994 74.1598 93.3403 74.5453C93.2055 74.8562 93.0084 75.1361 92.7611 75.3677C92.5752 75.5424 92.3738 75.6998 92.1595 75.8381C91.9867 75.9501 91.8395 76.0301 91.7531 76.0781C91.7066 76.1026 91.6571 76.1209 91.6059 76.1325Z" fill="#251E4E"/>
<path d="M80.0352 65.8206C80.3445 65.5636 80.5623 65.2133 80.656 64.8222C80.7472 64.433 80.7955 64.0348 80.8 63.635C80.8 63.5198 80.8 63.3694 80.6784 63.3406C80.5568 63.3118 80.48 63.4206 80.4288 63.5198C80.0376 64.2607 79.8993 65.1091 80.0352 65.9358L80.1056 65.8686" fill="#251E4E"/>
<path d="M74.4506 139.668L74.3898 136.788L79.7786 136.641L79.9098 140.849L79.5898 140.881C78.105 141.002 72.0314 141.399 71.0298 141.124C69.9002 140.82 74.4506 139.668 74.4506 139.668Z" fill="#FFC001"/>
<g opacity="0.5">
<path d="M77.9551 140.861C78.0224 140.404 78.2574 139.987 78.6143 139.693C78.9614 139.398 79.4074 139.246 79.8623 139.268L79.9039 140.772L77.9551 140.861Z" fill="#AA9DF6"/>
</g>
<g opacity="0.4">
<path d="M72.2306 140.312C72.2306 140.312 70.6306 140.818 70.845 141.077C71.0594 141.336 77.2034 141.167 79.9106 140.853V140.735L72.733 140.994C72.733 140.994 72.5442 140.316 72.2306 140.312Z" fill="#AA9DF6"/>
</g>
<path d="M79.9998 140.727H79.907L79.6414 140.749L78.6622 140.819C77.8366 140.871 76.6942 140.928 75.4302 140.967C74.1662 141.005 73.0238 141.008 72.195 141.002C73.0238 141.002 74.1662 140.979 75.4302 140.944C76.6942 140.909 77.8334 140.858 78.6622 140.819L79.6414 140.768H79.907L79.9998 140.727Z" fill="#251E4E"/>
<path d="M72.7293 141.071C72.68 140.91 72.6135 140.754 72.5309 140.607C72.4322 140.472 72.3172 140.349 72.1885 140.242C72.3524 140.309 72.492 140.424 72.5887 140.572C72.6854 140.72 72.7344 140.894 72.7293 141.071Z" fill="#251E4E"/>
<path d="M74.2973 140.224C74.2813 140.224 74.2014 140.144 74.1214 140.022C74.0414 139.901 73.9837 139.795 73.9997 139.782C74.0157 139.77 74.0925 139.866 74.1757 139.987C74.2324 140.057 74.2739 140.137 74.2973 140.224Z" fill="#251E4E"/>
<path d="M74.7264 139.981C74.7264 139.997 74.6272 139.942 74.5344 139.859C74.4416 139.776 74.3712 139.702 74.3808 139.689C74.3904 139.677 74.48 139.728 74.576 139.811C74.672 139.894 74.7392 139.968 74.7264 139.981Z" fill="#251E4E"/>
<path d="M74.989 139.461C74.8999 139.498 74.8035 139.513 74.7074 139.506C74.613 139.517 74.5172 139.509 74.4258 139.483C74.609 139.431 74.8021 139.423 74.989 139.461Z" fill="#251E4E"/>
<path d="M75.0716 139.102C74.9787 139.169 74.8663 139.204 74.7516 139.201C74.6441 139.221 74.5331 139.21 74.4316 139.169C74.5371 139.148 74.6442 139.137 74.7516 139.137C74.8573 139.117 74.9642 139.105 75.0716 139.102Z" fill="#251E4E"/>
<path d="M74.0988 139.76C73.9844 139.779 73.8676 139.779 73.7532 139.76C73.6276 139.747 73.5034 139.724 73.382 139.689C73.309 139.67 73.2382 139.643 73.1708 139.609C73.1292 139.586 73.0974 139.549 73.0812 139.504C73.0748 139.478 73.076 139.451 73.0845 139.426C73.093 139.401 73.1085 139.379 73.1292 139.363C73.2589 139.295 73.4083 139.273 73.5521 139.301C73.696 139.33 73.8257 139.407 73.9196 139.52C73.9744 139.586 74.0147 139.664 74.038 139.747C74.0451 139.779 74.0451 139.811 74.038 139.843C73.9994 139.737 73.9431 139.639 73.8716 139.552C73.7917 139.462 73.6871 139.397 73.5708 139.366C73.4335 139.324 73.2852 139.338 73.158 139.405C73.1068 139.449 73.1292 139.513 73.19 139.549C73.2534 139.581 73.3198 139.606 73.3884 139.625C73.5055 139.662 73.6253 139.69 73.7468 139.709C73.9676 139.753 74.0988 139.747 74.0988 139.76Z" fill="#251E4E"/>
<path d="M74.0131 139.78C73.9659 139.709 73.9486 139.623 73.9651 139.54C73.9737 139.449 74.0033 139.361 74.0515 139.284C74.0796 139.232 74.1204 139.188 74.1703 139.156C74.2201 139.124 74.2772 139.105 74.3363 139.102C74.3717 139.108 74.4033 139.128 74.4243 139.157C74.4452 139.186 74.4538 139.223 74.4483 139.258C74.4399 139.314 74.4215 139.367 74.3939 139.415C74.3495 139.492 74.2957 139.563 74.2339 139.626C74.1833 139.691 74.1172 139.741 74.0419 139.774C74.0419 139.774 74.1091 139.71 74.2019 139.598C74.2535 139.531 74.2995 139.46 74.3395 139.386C74.3843 139.31 74.4131 139.178 74.3395 139.166C74.2659 139.153 74.1667 139.249 74.1155 139.319C74.0695 139.388 74.0379 139.465 74.0227 139.546C74.0103 139.624 74.0071 139.702 74.0131 139.78Z" fill="#251E4E"/>
<path d="M79.833 139.254C79.833 139.254 79.6794 139.254 79.4362 139.28C79.1189 139.322 78.8202 139.455 78.5754 139.661C78.3305 139.867 78.1496 140.139 78.0538 140.445C77.9802 140.678 77.9738 140.832 77.9642 140.832C77.9546 140.832 77.9642 140.794 77.9642 140.723C77.97 140.624 77.9872 140.527 78.0154 140.432C78.1029 140.113 78.2847 139.827 78.537 139.613C78.7916 139.401 79.1035 139.269 79.433 139.235C79.5319 139.224 79.6318 139.224 79.7306 139.235C79.7655 139.236 79.8001 139.243 79.833 139.254Z" fill="#251E4E"/>
<path d="M79.2129 137.023C79.2619 137.391 79.2876 137.76 79.2897 138.131C79.3124 138.499 79.3124 138.869 79.2897 139.238C79.2424 138.872 79.2168 138.503 79.2129 138.134C79.1921 137.764 79.1921 137.393 79.2129 137.023Z" fill="#251E4E"/>
<path d="M77.2639 140.35C77.0085 140.42 76.7446 140.453 76.4799 140.449C76.2158 140.47 75.9502 140.458 75.6895 140.411C75.6895 140.392 76.0447 140.411 76.4767 140.385C76.9087 140.36 77.2607 140.331 77.2639 140.35Z" fill="#251E4E"/>
<path d="M78.3193 140.322C78.3193 140.322 78.2937 140.396 78.2585 140.479C78.2233 140.562 78.2073 140.633 78.1881 140.633C78.1689 140.633 78.1593 140.546 78.1881 140.453C78.2169 140.361 78.3065 140.309 78.3193 140.322Z" fill="#251E4E"/>
<path d="M78.7195 139.823C78.7195 139.823 78.7003 139.89 78.6459 139.948C78.5915 140.005 78.5371 140.044 78.5243 140.031C78.5115 140.018 78.5435 139.964 78.5979 139.903C78.6523 139.842 78.6907 139.81 78.7195 139.823Z" fill="#251E4E"/>
<path d="M79.2669 139.576C79.2669 139.595 79.1933 139.595 79.1133 139.624C79.0333 139.652 78.9789 139.7 78.9661 139.688C78.9533 139.675 78.9949 139.598 79.0909 139.563C79.1869 139.528 79.2733 139.56 79.2669 139.576Z" fill="#251E4E"/>
<path d="M79.6794 139.459C79.6794 139.475 79.657 139.503 79.6122 139.523C79.5674 139.542 79.5258 139.542 79.5194 139.523C79.513 139.503 79.5418 139.478 79.5866 139.459C79.6314 139.439 79.6794 139.443 79.6794 139.459Z" fill="#251E4E"/>
<path d="M61.4402 124.272L62.6881 121.68L67.5618 123.99L65.7729 127.801L65.4529 127.676C64.0737 127.116 58.4769 124.72 57.7089 124.022C56.8577 123.244 61.4402 124.272 61.4402 124.272Z" fill="#FFC001"/>
<g opacity="0.5">
<path d="M64.0225 126.923C64.2897 126.547 64.6862 126.283 65.1361 126.181C65.5791 126.077 66.045 126.143 66.4417 126.366L65.8017 127.729L64.0225 126.923Z" fill="#AA9DF6"/>
</g>
<g opacity="0.4">
<path d="M59.1648 123.839C59.1648 123.839 57.5168 123.57 57.584 123.894C57.6512 124.217 63.2128 126.85 65.7696 127.798L65.8144 127.686L59.2992 124.668C59.2992 124.668 59.4432 123.986 59.1648 123.839Z" fill="#AA9DF6"/>
</g>
<path d="M65.8912 127.72C65.8611 127.715 65.832 127.705 65.8048 127.691L65.5552 127.592L64.64 127.211C63.8784 126.891 62.8352 126.417 61.6896 125.876C60.544 125.336 59.5232 124.827 58.7904 124.446L57.92 123.992L57.6864 123.864L57.6064 123.812L57.6928 123.851L57.9328 123.966L58.8096 124.404C59.552 124.772 60.576 125.278 61.7184 125.819C62.8608 126.36 63.9008 126.83 64.6592 127.166L65.552 127.566L65.7952 127.678L65.8912 127.72Z" fill="#251E4E"/>
<path d="M59.2638 124.748C59.2943 124.583 59.3061 124.416 59.299 124.249C59.2689 124.083 59.2217 123.921 59.1582 123.766C59.2811 123.895 59.3537 124.064 59.363 124.242C59.3944 124.417 59.359 124.598 59.2638 124.748Z" fill="#251E4E"/>
<path d="M61.046 124.7C61.0268 124.7 60.998 124.585 60.982 124.441C60.966 124.297 60.9628 124.175 60.982 124.172C61.0213 124.253 61.0431 124.341 61.046 124.431C61.0652 124.578 61.0652 124.697 61.046 124.7Z" fill="#251E4E"/>
<path d="M61.539 124.674C61.523 124.674 61.4718 124.594 61.4206 124.479C61.3694 124.364 61.347 124.265 61.3662 124.258C61.3854 124.252 61.4334 124.338 61.4814 124.453C61.5294 124.569 61.555 124.668 61.539 124.674Z" fill="#251E4E"/>
<path d="M62.0061 124.335C61.9112 124.327 61.8194 124.297 61.7373 124.249C61.6463 124.219 61.5631 124.168 61.4941 124.102C61.5891 124.11 61.6809 124.14 61.7629 124.188C61.9069 124.255 62.0157 124.319 62.0061 124.335Z" fill="#251E4E"/>
<path d="M62.2459 124.051C62.1358 124.055 62.026 124.036 61.9232 123.996C61.8204 123.957 61.7266 123.897 61.6475 123.82C61.8467 123.898 62.0461 123.975 62.2459 124.051Z" fill="#251E4E"/>
<path d="M61.0812 124.194C60.9665 124.163 60.8581 124.112 60.7612 124.043C60.6542 123.976 60.5535 123.898 60.4604 123.813C60.4045 123.761 60.3531 123.704 60.3068 123.643C60.2804 123.604 60.2701 123.556 60.278 123.509C60.2829 123.483 60.2957 123.459 60.3146 123.441C60.3335 123.423 60.3576 123.41 60.3836 123.406C60.4789 123.405 60.5735 123.424 60.6603 123.464C60.747 123.503 60.8239 123.562 60.8853 123.635C60.9466 123.708 60.9909 123.793 61.0148 123.886C61.0387 123.978 61.0417 124.074 61.0236 124.168C61.0236 124.226 60.9948 124.258 60.9916 124.254C61.0049 124.148 60.9995 124.039 60.9756 123.934C60.9432 123.819 60.8789 123.714 60.79 123.634C60.7395 123.584 60.6794 123.545 60.6134 123.519C60.5474 123.493 60.4769 123.481 60.406 123.483C60.3388 123.483 60.3292 123.563 60.3708 123.621C60.4114 123.678 60.4575 123.732 60.5084 123.781C60.5971 123.867 60.6924 123.946 60.7932 124.018C60.966 124.126 61.0876 124.184 61.0812 124.194Z" fill="#251E4E"/>
<path d="M60.9951 124.176C60.9861 124.092 61.0089 124.007 61.0591 123.939C61.1092 123.862 61.1759 123.798 61.2543 123.75C61.3027 123.717 61.3589 123.696 61.4177 123.689C61.4765 123.683 61.5359 123.692 61.5903 123.715C61.6188 123.737 61.6377 123.77 61.6431 123.805C61.6484 123.841 61.6398 123.878 61.6191 123.907C61.588 123.953 61.5476 123.991 61.5007 124.019C61.4262 124.07 61.3455 124.111 61.2607 124.141C61.186 124.173 61.1049 124.187 61.0239 124.182C61.0239 124.182 61.1103 124.157 61.2447 124.096C61.3224 124.062 61.3964 124.02 61.4655 123.971C61.5391 123.926 61.6255 123.821 61.5519 123.77C61.5072 123.755 61.46 123.751 61.4136 123.757C61.3671 123.763 61.3226 123.78 61.2831 123.805C61.2118 123.846 61.1489 123.9 61.0975 123.965C61.0553 124.031 61.0209 124.102 60.9951 124.176Z" fill="#251E4E"/>
<path d="M66.4218 126.343C66.4218 126.343 66.2906 126.263 66.057 126.187C65.7551 126.082 65.4298 126.066 65.1189 126.139C64.8079 126.212 64.5241 126.372 64.3002 126.599C64.1242 126.772 64.0506 126.919 64.041 126.903C64.0514 126.868 64.0677 126.834 64.089 126.804C64.1396 126.72 64.1985 126.64 64.265 126.567C64.4884 126.323 64.7806 126.151 65.1032 126.075C65.4258 125.999 65.7639 126.022 66.073 126.142C66.165 126.177 66.253 126.222 66.3354 126.276C66.3962 126.315 66.425 126.34 66.4218 126.343Z" fill="#251E4E"/>
<path d="M66.8796 124.078C66.7557 124.427 66.6115 124.767 66.4476 125.099C66.3037 125.439 66.1402 125.77 65.958 126.091C66.0819 125.742 66.2261 125.402 66.39 125.07C66.5323 124.73 66.6958 124.398 66.8796 124.078Z" fill="#251E4E"/>
<path d="M63.6316 126.16C63.3735 126.105 63.1239 126.015 62.8892 125.895C62.6444 125.792 62.4133 125.66 62.2012 125.501C62.2012 125.485 62.5212 125.655 62.9148 125.837C63.3084 126.019 63.638 126.144 63.6316 126.16Z" fill="#251E4E"/>
<path d="M64.5886 126.607C64.5886 126.627 64.531 126.662 64.4638 126.719C64.3966 126.777 64.3486 126.835 64.3326 126.825C64.3166 126.815 64.3326 126.735 64.4222 126.671C64.5118 126.607 64.5854 126.591 64.5886 126.607Z" fill="#251E4E"/>
<path d="M65.1612 126.329C65.1612 126.348 65.11 126.383 65.0364 126.409C64.9628 126.434 64.8956 126.447 64.8892 126.428C64.8828 126.409 64.9404 126.377 65.014 126.348C65.0876 126.319 65.1548 126.313 65.1612 126.329Z" fill="#251E4E"/>
<path d="M65.7726 126.375C65.7726 126.375 65.6958 126.356 65.6126 126.35C65.5294 126.343 65.459 126.35 65.4526 126.35C65.4462 126.35 65.5166 126.286 65.6222 126.299C65.7278 126.311 65.7854 126.363 65.7726 126.375Z" fill="#251E4E"/>
<path d="M66.1857 126.448C66.1857 126.448 66.1441 126.477 66.0961 126.474C66.0481 126.471 66.0097 126.451 66.0129 126.435C66.0161 126.419 66.0545 126.403 66.0993 126.407C66.1441 126.41 66.1857 126.429 66.1857 126.448Z" fill="#251E4E"/>
<path d="M96.9601 86.6085L95.8145 80.8485C94.9825 76.1573 88.3905 75.8373 88.3905 75.8373L83.2001 75.7509C83.2001 75.7509 79.3601 75.2357 76.9953 77.9045C74.5473 80.6661 71.5361 83.9333 71.5361 83.9333L73.8337 89.7157L79.2737 85.2357C78.8188 86.0338 78.5682 86.9318 78.5441 87.8501C78.5441 89.3829 80.1441 90.0901 80.1441 90.0901L80.6401 94.7397L79.0401 102.269L95.9393 101.591C95.6541 99.0654 94.7996 96.6375 93.4401 94.4901L93.7601 86.6085H96.9601Z" fill="#FFC001"/>
<path d="M89.7186 80.1719C89.7639 80.2903 89.794 80.4139 89.8082 80.5399C89.8626 80.8119 89.9266 81.1479 90.0066 81.5479C90.1794 82.4375 90.4034 83.5959 90.6466 84.8759C90.8898 86.1559 91.1074 87.3591 91.2418 88.2167C91.3122 88.6455 91.3602 88.9943 91.389 89.2343C91.4121 89.3587 91.4196 89.4856 91.4114 89.6119C91.3691 89.4928 91.3402 89.3694 91.325 89.2439C91.2706 88.9719 91.2034 88.6359 91.1266 88.2359C90.9538 87.3463 90.7298 86.1879 90.4866 84.9079C90.2434 83.6279 90.0258 82.4279 89.8914 81.5671C89.821 81.1383 89.773 80.7927 89.7442 80.5495C89.7235 80.4247 89.7149 80.2983 89.7186 80.1719Z" fill="#251E4E"/>
<path d="M97.0589 86.3101C96.0204 86.3991 94.9777 86.4311 93.9357 86.4061C92.8941 86.4369 91.8515 86.4124 90.8125 86.3325C91.8512 86.2456 92.8937 86.2147 93.9357 86.2397C94.9773 86.2088 96.0198 86.2323 97.0589 86.3101Z" fill="#251E4E"/>
<path d="M97.7022 91.5184C97.3822 88.76 96.9246 86.3984 96.9246 86.3984H90.9406C90.9406 86.3984 91.683 89.9184 91.5198 90.7184C91.3726 91.4256 79.779 91.8928 76.7582 91.9408C76.5758 91.8064 76.3166 92.0336 76.083 91.8288C75.8768 91.6457 75.7026 91.4294 75.5678 91.1888C75.3896 90.897 75.2508 90.5828 75.155 90.2544C75.1437 90.193 75.1146 90.1362 75.0714 90.0911C75.0281 90.0459 74.9726 90.0144 74.9117 90.0005C74.8508 89.9865 74.7872 89.9907 74.7286 90.0125C74.67 90.0344 74.6191 90.0728 74.5822 90.1232C74.4606 90.3824 74.5982 91.2432 75.171 92.0752C75.7438 92.9072 74.2398 92.4752 73.6894 92.328C73.139 92.1808 71.411 91.8064 71.235 91.944C70.9726 92.1456 71.1358 92.4688 71.6894 92.6032C72.243 92.7376 73.8782 93.2432 73.7886 93.5632C73.699 93.8832 70.9086 93.0608 70.9086 93.0608C70.9086 93.0608 70.339 92.7952 70.2238 93.1312C70.019 93.7392 73.0494 94.3536 73.3406 94.4112C73.5422 94.4496 73.4558 94.7728 73.2414 94.7312C73.027 94.6896 70.4702 93.8768 70.2558 94.4944C70.0894 94.968 72.7454 95.0256 73.1838 95.4928C73.6222 95.96 71.1742 95.24 71.0334 95.6976C70.9822 95.8704 71.9934 95.9472 73.4654 96.1552C74.9702 96.2989 76.4822 96.3523 77.9934 96.3152C81.3886 96.5008 93.395 96.7504 95.9582 96.568C98.9406 96.3408 97.8174 92.4784 97.7022 91.5184Z" fill="#FFBE9D"/>
<path d="M78.6875 86.775C78.7341 86.5116 78.8026 86.2526 78.8923 86.0006C78.9627 85.7606 79.0491 85.479 79.1579 85.1686C79.2123 85.015 79.2731 84.8486 79.3403 84.6854C79.3787 84.5958 79.4267 84.519 79.4491 84.4454C79.4745 84.3648 79.4853 84.2802 79.4811 84.1958C79.4654 84.0173 79.4387 83.8399 79.4011 83.6646C79.3691 83.4918 79.3371 83.3254 79.3051 83.1622C79.2539 82.8422 79.2027 82.567 79.1579 82.3046C79.0985 82.043 79.0664 81.776 79.0619 81.5078C79.16 81.7576 79.2308 82.0172 79.2731 82.2822C79.3307 82.5414 79.3915 82.8262 79.4555 83.1302L79.5611 83.6358C79.6047 83.8188 79.6336 84.005 79.6475 84.1926C79.6528 84.2957 79.6387 84.3988 79.6059 84.4966C79.5724 84.583 79.5339 84.6674 79.4907 84.7494C79.4235 84.9094 79.3595 85.0694 79.3019 85.223C79.1963 85.5142 79.0939 85.7862 79.0043 86.0358C78.9298 86.2944 78.8234 86.5427 78.6875 86.775Z" fill="#251E4E"/>
<path d="M85.6636 64.9609C86.1244 65.5561 86.6236 66.2409 86.5244 66.9865C86.4444 67.6265 85.9228 68.2185 86.0092 68.8713C86.1116 69.6233 86.9692 70.1161 87.0268 70.8745C87.062 71.5145 86.5212 71.9881 86.1404 72.4745C85.861 72.8342 85.6552 73.2454 85.535 73.6847C85.4147 74.124 85.3823 74.5827 85.4396 75.0345C85.5027 75.4839 85.6671 75.913 85.9204 76.2895C86.1738 76.6659 86.5095 76.9798 86.902 77.2073C87.3 77.4275 87.7482 77.5409 88.203 77.5364C88.6578 77.5319 89.1037 77.4097 89.4972 77.1817C90.191 76.6977 90.6963 75.989 90.9276 75.1753C91.286 74.1449 91.382 72.9353 90.7708 72.0265C90.5212 71.6617 90.1596 71.3481 90.0796 70.9129C89.9772 70.3625 90.3676 69.8441 90.4284 69.2873C90.5116 68.5417 89.9964 67.8601 89.4268 67.3673C88.8572 66.8745 88.1852 66.4841 87.7596 65.8665" fill="#251E4E"/>
<g opacity="0.3">
<path d="M89.9199 81.7266C90.1279 84.9266 90.2399 87.8866 90.3167 91.0962C90.7439 91.0777 91.1588 90.9475 91.5199 90.7186C91.6831 89.349 90.6463 85.1794 89.9199 81.7266Z" fill="black"/>
</g>
<path d="M82.1183 80.2505C82.0718 80.0064 82.0974 79.754 82.1919 79.5241C82.3007 79.1337 82.4703 78.8489 82.5119 78.8681C82.498 79.109 82.4439 79.3458 82.3519 79.5689C82.3105 79.807 82.2316 80.037 82.1183 80.2505Z" fill="#AA9DF6"/>
<path d="M78.7195 80.2451C78.6939 80.2835 78.4667 80.1715 78.2459 79.9603C78.0251 79.7491 77.8971 79.5283 77.9259 79.5027C77.9547 79.4771 78.1403 79.6403 78.3515 79.8387C78.5627 80.0371 78.7419 80.2067 78.7195 80.2451Z" fill="#AA9DF6"/>
<path d="M75.4721 82.8989C75.4721 82.8989 75.4433 82.8701 75.4241 82.8125H75.4977C75.5476 83.0736 75.5476 83.3418 75.4977 83.6029C75.4787 83.9016 75.3668 84.1869 75.1777 84.4189C75.2154 84.1338 75.2721 83.8516 75.3473 83.5741C75.4049 83.2541 75.4177 82.9533 75.4369 82.8157H75.5105C75.4913 82.8797 75.4849 82.8957 75.4721 82.8989Z" fill="#AA9DF6"/>
<path d="M75.328 86.2201C75.0837 86.21 74.8445 86.1466 74.6272 86.0345C74.256 85.8905 73.968 85.7401 73.9872 85.6953C74.2327 85.7049 74.473 85.7682 74.6912 85.8809C75.056 86.0249 75.344 86.1753 75.328 86.2201Z" fill="#AA9DF6"/>
<path d="M78.08 84.3768C78.0352 84.3768 78.0416 84.0888 78.1472 83.7592C78.2528 83.4296 78.4 83.1928 78.4416 83.212C78.4832 83.2312 78.4032 83.4904 78.304 83.8072C78.2048 84.124 78.112 84.3832 78.08 84.3768Z" fill="#AA9DF6"/>
<path d="M80.9601 77.0924C80.9601 77.1372 80.7201 77.1852 80.4193 77.2012C80.1185 77.2172 79.8753 77.2012 79.8721 77.1436C79.8689 77.086 80.1121 77.0476 80.4129 77.0348C80.7137 77.022 80.9601 77.0444 80.9601 77.0924Z" fill="#AA9DF6"/>
<path d="M81.5454 83.3467C81.5166 83.3787 81.2574 83.1866 81.0846 82.8346C80.9553 82.6338 80.9094 82.3904 80.9566 82.1562C81.0046 82.1562 81.0718 82.4411 81.2318 82.7611C81.3918 83.0811 81.5806 83.3115 81.5454 83.3467Z" fill="#AA9DF6"/>
<path d="M87.2286 82.0034C87.2606 82.0354 87.059 82.2914 86.755 82.5538C86.451 82.8162 86.1662 82.9762 86.1406 82.9378C86.115 82.8994 86.3486 82.6818 86.6462 82.4258C86.9438 82.1698 87.1966 81.9714 87.2286 82.0034Z" fill="#AA9DF6"/>
<path d="M84.4187 81.1234C84.4443 81.1618 84.2683 81.3378 84.0219 81.5202C83.7755 81.7026 83.5515 81.8242 83.5259 81.7858C83.5003 81.7474 83.6763 81.5714 83.9227 81.389C84.1691 81.2066 84.3899 81.0882 84.4187 81.1234Z" fill="#AA9DF6"/>
<path d="M85.798 78.8252C85.538 78.7707 85.3004 78.6391 85.1164 78.4476C84.7964 78.1628 84.6012 77.8556 84.6396 77.83C84.678 77.8044 84.9084 78.0508 85.2252 78.3196C85.542 78.5884 85.8204 78.7836 85.798 78.8252Z" fill="#AA9DF6"/>
<path d="M89.0334 77.9288C89.059 77.964 88.8798 78.1496 88.627 78.3384C88.3742 78.5272 88.147 78.6584 88.1182 78.62C88.0894 78.5816 88.2718 78.3992 88.5246 78.2072C88.7774 78.0152 89.0046 77.8904 89.0334 77.9288Z" fill="#AA9DF6"/>
<path d="M91.7337 79.2098C91.7296 78.9785 91.7642 78.7481 91.8361 78.5282C91.9097 78.1602 91.9577 77.8562 92.0057 77.8594C92.0766 78.0876 92.0766 78.332 92.0057 78.5602C91.9257 78.9442 91.7753 79.2258 91.7337 79.2098Z" fill="#AA9DF6"/>
<path d="M92.2114 82.2911C92.1794 82.3231 91.8914 82.1087 91.5714 81.8079C91.2514 81.5071 91.005 81.2383 91.037 81.2063C91.069 81.1743 91.357 81.3855 91.677 81.6863C91.997 81.9871 92.2434 82.2559 92.2114 82.2911Z" fill="#AA9DF6"/>
<path d="M94.3994 80.9968C94.3578 80.9776 94.441 80.6768 94.585 80.3568C94.729 80.0368 94.8826 79.7552 94.9242 79.7744C94.9126 79.9992 94.8491 80.2182 94.7386 80.4144C94.5914 80.7536 94.4378 81.016 94.3994 80.9968Z" fill="#AA9DF6"/>
<path d="M94.5117 84.6971C94.5663 84.4293 94.6752 84.1755 94.8317 83.9515C94.9394 83.7028 95.0949 83.4778 95.2893 83.2891C95.235 83.556 95.126 83.8087 94.9693 84.0315C94.8621 84.2813 94.7066 84.5075 94.5117 84.6971Z" fill="#AA9DF6"/>
<path d="M92.3551 85.2648C92.3167 85.2936 92.0992 85.0632 91.8624 84.7496C91.6256 84.436 91.4688 84.164 91.504 84.1352C91.5392 84.1064 91.7631 84.3368 91.9967 84.6504C92.2303 84.964 92.3903 85.236 92.3551 85.2648Z" fill="#AA9DF6"/>
<path d="M88.2842 86.8441C88.3613 86.5085 88.5109 86.194 88.7226 85.9225C88.8898 85.6226 89.1215 85.3635 89.401 85.1641C89.2515 85.4655 89.0713 85.7507 88.8634 86.0153C88.6989 86.3104 88.5048 86.5881 88.2842 86.8441Z" fill="#AA9DF6"/>
<path d="M85.3597 86.552C85.164 86.3363 85.0109 86.0855 84.9085 85.8128C84.7574 85.5632 84.6543 85.2875 84.6045 85C84.9526 85.4646 85.2089 85.9914 85.3597 86.552Z" fill="#AA9DF6"/>
<path d="M81.6765 85.6953C81.493 85.9628 81.2659 86.1975 81.0045 86.3897C80.7798 86.6235 80.5169 86.8172 80.2269 86.9625C80.1949 86.9273 80.4957 86.6169 80.8957 86.2649C81.1212 86.0314 81.3853 85.8387 81.6765 85.6953Z" fill="#AA9DF6"/>
<path d="M83.0754 89.6919C83.037 89.7207 82.7746 89.4231 82.4354 89.0775C82.0962 88.7319 81.7954 88.4631 81.8242 88.4375C82.1077 88.5485 82.3601 88.7264 82.5602 88.9559C82.7897 89.1553 82.9666 89.408 83.0754 89.6919Z" fill="#AA9DF6"/>
<path d="M85.6543 89.8124C85.6726 89.5194 85.7711 89.2371 85.9391 88.9964C86.1791 88.5804 86.4703 88.3116 86.5023 88.3564C86.3874 88.6127 86.2458 88.8562 86.0799 89.0828C85.9635 89.34 85.8209 89.5845 85.6543 89.8124Z" fill="#AA9DF6"/>
<path d="M89.2802 90.2352C88.9871 90.097 88.7198 89.9097 88.4898 89.6816C88.2241 89.4942 87.9916 89.2639 87.8018 89C88.0959 89.138 88.3643 89.3252 88.5954 89.5536C88.86 89.741 89.0915 89.9714 89.2802 90.2352Z" fill="#AA9DF6"/>
<path d="M88.9602 80.7096C88.7093 80.6692 88.4751 80.5582 88.285 80.3896C87.9458 80.1432 87.7378 79.8712 87.7698 79.8392C87.8018 79.8072 88.0578 80.0184 88.3842 80.2552C88.7106 80.492 88.9602 80.668 88.9602 80.7096Z" fill="#AA9DF6"/>
<path d="M83.7217 97.1124C83.7409 97.1572 83.4817 97.2948 83.1937 97.5092C82.9057 97.7236 82.6913 97.9252 82.6561 97.8964C82.6209 97.8676 82.7841 97.602 83.0945 97.3748C83.4049 97.1476 83.7089 97.0708 83.7217 97.1124Z" fill="#AA9DF6"/>
<path d="M87.5934 98.6882C87.3144 98.256 87.1341 97.7676 87.0654 97.2578C87.3431 97.6907 87.5233 98.1788 87.5934 98.6882Z" fill="#AA9DF6"/>
<path d="M91.4977 97.3074C91.5329 97.3394 91.3313 97.6018 91.0529 97.893C90.7745 98.1842 90.5217 98.3954 90.4897 98.3634C90.4577 98.3314 90.6561 98.069 90.9345 97.7778C91.2129 97.4866 91.4657 97.2786 91.4977 97.3074Z" fill="#AA9DF6"/>
<path d="M94.4001 99.4144C94.3649 99.4496 94.1057 99.2448 93.7217 99.1712C93.3377 99.0976 93.0209 99.1712 93.0049 99.1296C93.1121 99.0521 93.2359 99.0007 93.3665 98.9796C93.497 98.9585 93.6307 98.9682 93.7569 99.008C94.1793 99.0944 94.4225 99.3888 94.4001 99.4144Z" fill="#AA9DF6"/>
<path d="M95.9778 100.839C95.9778 100.839 73.8786 96.209 71.7378 97.2234C69.597 98.2378 59.7314 122.625 59.7314 122.625L67.677 126.043L76.2242 105.319C76.2242 105.319 91.6962 110.971 94.4002 110.401C97.1042 109.831 95.9778 100.839 95.9778 100.839Z" fill="#342B69"/>
<path d="M86.0989 102.133C85.7629 102.245 72.9789 107.502 72.0765 109.189C71.1741 110.875 73.3885 138.93 73.3885 138.93H80.6589L80.2109 113.998L94.3997 110.395L86.0989 102.133Z" fill="#342B69"/>
<path d="M94.4734 110.466C94.4035 110.463 94.3339 110.455 94.2654 110.44L93.6702 110.335C93.155 110.239 92.4094 110.092 91.491 109.896C89.6574 109.509 87.1294 108.936 84.3774 108.133C83.0014 107.736 81.7022 107.32 80.5374 106.917C79.3726 106.514 78.3198 106.111 77.459 105.743C77.0238 105.567 76.6366 105.391 76.2974 105.237C75.9582 105.084 75.6574 104.952 75.4302 104.831L74.8926 104.559C74.8272 104.53 74.765 104.495 74.707 104.453C74.7751 104.473 74.8414 104.499 74.9054 104.53L75.459 104.773C75.6958 104.882 75.9902 105.01 76.3326 105.154C76.675 105.298 77.0654 105.474 77.5006 105.634C78.3678 105.989 79.4206 106.364 80.5886 106.773C81.7566 107.183 83.059 107.576 84.4286 107.973C87.1774 108.764 89.6958 109.365 91.523 109.781L93.6894 110.271L94.2782 110.405C94.3452 110.419 94.4106 110.439 94.4734 110.466Z" fill="#251E4E"/>
<path d="M72.0801 115.638C72.0443 115.501 72.0218 115.361 72.0129 115.219C71.9809 114.915 71.9393 114.528 71.8913 114.067C71.8433 113.606 71.7921 112.995 71.7345 112.362C71.6367 111.66 71.6367 110.948 71.7345 110.246C71.8762 109.537 72.2487 108.895 72.7937 108.419C73.2273 108.033 73.7186 107.716 74.2497 107.482C74.6016 107.321 74.9616 107.179 75.3281 107.056C75.4604 107.003 75.5976 106.963 75.7377 106.938C75.7377 106.966 75.1745 107.168 74.3009 107.577C73.7888 107.818 73.3163 108.136 72.8993 108.518C72.3861 108.978 72.0348 109.59 71.8977 110.265C71.8082 110.953 71.8082 111.649 71.8977 112.336C71.9457 112.976 71.9873 113.549 72.0225 114.045C72.0577 114.541 72.0737 114.896 72.0897 115.2C72.1028 115.346 72.0995 115.493 72.0801 115.638Z" fill="#251E4E"/>
<path d="M78.457 113.227C79.0711 113.376 79.6539 113.633 80.1786 113.985C79.5651 113.834 78.9825 113.577 78.457 113.227Z" fill="#251E4E"/>
<path d="M79.1006 112.461C79.3077 112.724 79.5011 112.997 79.6798 113.28C79.9998 113.719 80.3422 114.023 80.3198 114.061C80.0066 113.909 79.7418 113.673 79.555 113.379C79.3196 113.122 79.162 112.804 79.1006 112.461Z" fill="#251E4E"/>
<path d="M81.8908 113.602C81.8908 113.602 81.8684 113.662 81.7788 113.717C81.6489 113.786 81.5034 113.82 81.3564 113.816C81.1547 113.809 80.9527 113.814 80.7516 113.832C80.6438 113.848 80.5462 113.905 80.4789 113.99C80.4117 114.076 80.3798 114.184 80.39 114.293C80.4146 114.942 80.3846 115.591 80.3004 116.235C80.2184 115.588 80.1927 114.935 80.2236 114.283C80.2252 114.135 80.2733 113.99 80.3612 113.87C80.4555 113.764 80.5852 113.696 80.726 113.678C80.9395 113.667 81.1536 113.673 81.366 113.698C81.5463 113.711 81.7269 113.678 81.8908 113.602Z" fill="#251E4E"/>
<path opacity="0.3" d="M80.1465 97.08L95.2089 98.2896L94.5657 96.6032L80.2937 96.3984L80.1465 97.08Z" fill="black"/>
<path d="M120.915 93.7734H32.1182V96.1414H36.867L34.419 141.178L35.7694 141.252L38.2238 96.1414H116.073L118.16 141.217H119.517L117.427 96.1414H120.915V93.7734Z" fill="#251E4E"/>
<path d="M58.0156 79.7674L62.9404 94.1546H85.238L85.0716 93.4154L76.0572 93.1338L71.9036 79.7578L58.0156 79.7674Z" fill="#251E4E"/>
<path d="M67.8974 86.5251C68.0446 87.1171 67.7918 87.6931 67.3342 87.8051C66.8766 87.9171 66.3742 87.5491 66.2366 86.9571C66.099 86.3651 66.3422 85.7923 66.7998 85.6771C67.2574 85.5619 67.7502 85.9363 67.8974 86.5251Z" fill="#AA9DF6"/>
</svg>
