<svg width="100" height="100" viewBox="0 0 100 100" fill="none" xmlns="http://www.w3.org/2000/svg">
<g clip-path="url(#clip0_130_11376)">
<rect width="100" height="100" fill="#1B1034"/>
<path d="M50 5C50 2.23858 47.7557 -0.0259357 45.008 0.249693C34.1337 1.34055 23.8639 5.97321 15.8204 13.5068C6.55495 22.1848 0.937329 34.0623 0.107054 46.7298C-0.723221 59.3974 3.29602 71.9065 11.3495 81.7197C19.4029 91.5328 30.8876 97.9152 43.4737 99.5722C56.0598 101.229 68.805 98.0367 79.1239 90.6423C89.4428 83.2479 96.5626 72.2053 99.0393 59.7545C101.516 47.3037 99.1638 34.377 92.4601 23.5966C86.6405 14.2379 77.9196 7.10508 67.6982 3.2369C65.1155 2.25953 62.3616 3.866 61.6468 6.53334V6.53334C60.9321 9.20067 62.5319 11.9135 65.0893 12.9551C72.8648 16.1221 79.49 21.676 83.9681 28.8773C89.331 37.5016 91.2127 47.843 89.2314 57.8036C87.2501 67.7643 81.5542 76.5983 73.2991 82.5139C65.044 88.4294 54.8479 90.9834 44.779 89.6578C34.71 88.3322 25.5223 83.2263 19.0796 75.3757C12.6368 67.5252 9.42142 57.5179 10.0856 47.3839C10.7499 37.2498 15.244 27.7479 22.6563 20.8054C28.8456 15.0085 36.6826 11.3587 45.0128 10.312C47.7526 9.96775 50 7.76142 50 5V5Z" fill="#2D2A64"/>
<rect x="67.3364" y="-8.09473" width="68.8667" height="91.9843" transform="rotate(33.2472 67.3364 -8.09473)" fill="url(#paint0_linear_130_11376)"/>
</g>
<defs>
<linearGradient id="paint0_linear_130_11376" x1="101.77" y1="-8.09473" x2="101.77" y2="83.8896" gradientUnits="userSpaceOnUse">
<stop offset="0.219605" stop-color="#1B1034"/>
<stop offset="1" stop-color="#1B1034" stop-opacity="0"/>
</linearGradient>
<clipPath id="clip0_130_11376">
<rect width="100" height="100" fill="white"/>
</clipPath>
</defs>
</svg>
