<svg width="269" height="186" viewBox="0 0 269 186" fill="none" xmlns="http://www.w3.org/2000/svg">
<rect width="269" height="186" rx="8" fill="#302257"/>
<path d="M134.5 56.3C134.5 54.4775 133.014 52.9747 131.212 53.247C128.029 53.7281 124.976 54.9043 122.277 56.7077C118.66 59.1251 115.84 62.561 114.175 66.581C112.51 70.6009 112.074 75.0244 112.923 79.292C113.772 83.5596 115.867 87.4796 118.944 90.5564C122.02 93.6331 125.94 95.7284 130.208 96.5773C134.476 97.4262 138.899 96.9905 142.919 95.3253C146.939 93.6602 150.375 90.8404 152.792 87.2225C154.596 84.5236 155.772 81.4708 156.253 78.2877C156.525 76.4856 155.023 75 153.2 75C151.377 75 149.935 76.494 149.548 78.2749C149.14 80.1507 148.382 81.9434 147.305 83.5558C145.612 86.0883 143.207 88.0622 140.393 89.2277C137.579 90.3933 134.483 90.6983 131.496 90.1041C128.508 89.5099 125.764 88.0432 123.611 85.8894C121.457 83.7357 119.99 80.9917 119.396 78.0044C118.802 75.0171 119.107 71.9207 120.272 69.1067C121.438 66.2927 123.412 63.8875 125.944 62.1954C127.557 61.118 129.349 60.3605 131.225 59.9522C133.006 59.5646 134.5 58.1225 134.5 56.3Z" fill="#695BB9"/>
<path d="M40.8924 117.818V128H39.6594V118.912H34.5288V128H33.2958V117.818H40.8924ZM43.2203 130.864V120.364H44.3539V121.577H44.4931C44.5792 121.444 44.6986 121.275 44.851 121.07C45.0068 120.861 45.2289 120.675 45.5172 120.513C45.8089 120.347 46.2033 120.264 46.7005 120.264C47.3435 120.264 47.9102 120.425 48.4007 120.746C48.8913 121.068 49.2741 121.524 49.5492 122.114C49.8243 122.704 49.9618 123.4 49.9618 124.202C49.9618 125.01 49.8243 125.711 49.5492 126.305C49.2741 126.895 48.8929 127.352 48.4057 127.677C47.9185 127.998 47.3567 128.159 46.7203 128.159C46.2298 128.159 45.8371 128.078 45.5421 127.915C45.2471 127.75 45.0201 127.562 44.861 127.354C44.7019 127.142 44.5792 126.966 44.4931 126.827H44.3936V130.864H43.2203ZM44.3738 124.182C44.3738 124.759 44.4583 125.267 44.6273 125.708C44.7963 126.146 45.0433 126.489 45.3681 126.737C45.6929 126.982 46.0906 127.105 46.5613 127.105C47.0518 127.105 47.4611 126.976 47.7892 126.717C48.1207 126.455 48.3693 126.104 48.535 125.663C48.704 125.219 48.7885 124.725 48.7885 124.182C48.7885 123.645 48.7057 123.161 48.54 122.73C48.3775 122.296 48.1306 121.953 47.7992 121.701C47.4711 121.446 47.0584 121.318 46.5613 121.318C46.084 121.318 45.6829 121.439 45.3581 121.681C45.0333 121.92 44.7881 122.254 44.6223 122.685C44.4566 123.113 44.3738 123.612 44.3738 124.182ZM54.8539 128.159C54.1645 128.159 53.5596 127.995 53.0392 127.667C52.5222 127.339 52.1178 126.88 51.8262 126.29C51.5378 125.7 51.3936 125.01 51.3936 124.222C51.3936 123.426 51.5378 122.732 51.8262 122.138C52.1178 121.545 52.5222 121.085 53.0392 120.756C53.5596 120.428 54.1645 120.264 54.8539 120.264C55.5433 120.264 56.1465 120.428 56.6635 120.756C57.1839 121.085 57.5882 121.545 57.8766 122.138C58.1683 122.732 58.3141 123.426 58.3141 124.222C58.3141 125.01 58.1683 125.7 57.8766 126.29C57.5882 126.88 57.1839 127.339 56.6635 127.667C56.1465 127.995 55.5433 128.159 54.8539 128.159ZM54.8539 127.105C55.3775 127.105 55.8084 126.971 56.1465 126.702C56.4846 126.434 56.7348 126.081 56.8972 125.643C57.0596 125.206 57.1408 124.732 57.1408 124.222C57.1408 123.711 57.0596 123.236 56.8972 122.795C56.7348 122.354 56.4846 121.998 56.1465 121.726C55.8084 121.454 55.3775 121.318 54.8539 121.318C54.3302 121.318 53.8993 121.454 53.5613 121.726C53.2232 121.998 52.973 122.354 52.8105 122.795C52.6481 123.236 52.5669 123.711 52.5669 124.222C52.5669 124.732 52.6481 125.206 52.8105 125.643C52.973 126.081 53.2232 126.434 53.5613 126.702C53.8993 126.971 54.3302 127.105 54.8539 127.105ZM60.1051 128V120.364H63.2273C64.0492 120.364 64.7022 120.549 65.1861 120.92C65.67 121.292 65.9119 121.782 65.9119 122.392C65.9119 122.856 65.7744 123.216 65.4993 123.471C65.2242 123.723 64.8712 123.893 64.4403 123.983C64.7221 124.023 64.9955 124.122 65.2607 124.281C65.5291 124.44 65.7512 124.659 65.9268 124.938C66.1025 125.213 66.1903 125.551 66.1903 125.952C66.1903 126.343 66.0909 126.692 65.892 127.001C65.6932 127.309 65.4081 127.553 65.0369 127.732C64.6657 127.911 64.2216 128 63.7045 128H60.1051ZM61.2188 126.926H63.7045C64.1089 126.926 64.4254 126.83 64.6541 126.638C64.8828 126.446 64.9972 126.184 64.9972 125.852C64.9972 125.458 64.8828 125.148 64.6541 124.923C64.4254 124.694 64.1089 124.58 63.7045 124.58H61.2188V126.926ZM61.2188 123.565H63.2273C63.5421 123.565 63.8123 123.522 64.0376 123.436C64.263 123.347 64.4354 123.221 64.5547 123.058C64.6773 122.893 64.7386 122.697 64.7386 122.472C64.7386 122.15 64.6044 121.898 64.3359 121.716C64.0675 121.53 63.6979 121.438 63.2273 121.438H61.2188V123.565ZM71.1681 128.159C70.4324 128.159 69.7976 127.997 69.264 127.672C68.7337 127.344 68.3244 126.886 68.036 126.3C67.751 125.71 67.6085 125.024 67.6085 124.241C67.6085 123.459 67.751 122.77 68.036 122.173C68.3244 121.573 68.7254 121.106 69.2392 120.771C69.7562 120.433 70.3594 120.264 71.0488 120.264C71.4466 120.264 71.8393 120.33 72.2271 120.463C72.6149 120.596 72.9679 120.811 73.286 121.109C73.6042 121.404 73.8578 121.795 74.0467 122.283C74.2356 122.77 74.3301 123.37 74.3301 124.082V124.58H68.4437V123.565H73.1369C73.1369 123.134 73.0507 122.75 72.8784 122.412C72.7093 122.074 72.4674 121.807 72.1525 121.612C71.841 121.416 71.4731 121.318 71.0488 121.318C70.5815 121.318 70.1771 121.434 69.8358 121.666C69.4977 121.895 69.2375 122.193 69.0552 122.561C68.8729 122.929 68.7818 123.323 68.7818 123.744V124.42C68.7818 124.997 68.8812 125.486 69.0801 125.887C69.2823 126.285 69.5623 126.588 69.9203 126.797C70.2782 127.002 70.6942 127.105 71.1681 127.105C71.4764 127.105 71.7548 127.062 72.0034 126.976C72.2553 126.886 72.4724 126.754 72.6547 126.578C72.8369 126.399 72.9778 126.177 73.0772 125.912L74.2108 126.23C74.0914 126.615 73.8909 126.953 73.6092 127.244C73.3275 127.533 72.9795 127.758 72.5652 127.92C72.1509 128.08 71.6852 128.159 71.1681 128.159ZM76.1149 130.864V120.364H77.2484V121.577H77.3876C77.4738 121.444 77.5931 121.275 77.7456 121.07C77.9013 120.861 78.1234 120.675 78.4118 120.513C78.7034 120.347 79.0978 120.264 79.595 120.264C80.238 120.264 80.8047 120.425 81.2953 120.746C81.7858 121.068 82.1686 121.524 82.4437 122.114C82.7188 122.704 82.8564 123.4 82.8564 124.202C82.8564 125.01 82.7188 125.711 82.4437 126.305C82.1686 126.895 81.7875 127.352 81.3002 127.677C80.813 127.998 80.2512 128.159 79.6149 128.159C79.1243 128.159 78.7316 128.078 78.4366 127.915C78.1416 127.75 77.9146 127.562 77.7555 127.354C77.5964 127.142 77.4738 126.966 77.3876 126.827H77.2882V130.864H76.1149ZM77.2683 124.182C77.2683 124.759 77.3528 125.267 77.5218 125.708C77.6909 126.146 77.9378 126.489 78.2626 126.737C78.5874 126.982 78.9851 127.105 79.4558 127.105C79.9463 127.105 80.3556 126.976 80.6838 126.717C81.0152 126.455 81.2638 126.104 81.4295 125.663C81.5985 125.219 81.6831 124.725 81.6831 124.182C81.6831 123.645 81.6002 123.161 81.4345 122.73C81.2721 122.296 81.0252 121.953 80.6937 121.701C80.3656 121.446 79.9529 121.318 79.4558 121.318C78.9785 121.318 78.5775 121.439 78.2527 121.681C77.9279 121.92 77.6826 122.254 77.5169 122.685C77.3511 123.113 77.2683 123.612 77.2683 124.182ZM84.6461 128V120.364H85.8194V123.685H86.595L89.3393 120.364H90.8507L87.7683 124.043L90.8904 128H89.3791L86.8734 124.778H85.8194V128H84.6461ZM94.4128 128.179C93.9289 128.179 93.4898 128.088 93.0953 127.906C92.7009 127.72 92.3877 127.453 92.1557 127.105C91.9237 126.754 91.8077 126.33 91.8077 125.832C91.8077 125.395 91.8939 125.04 92.0662 124.768C92.2386 124.493 92.4689 124.278 92.7573 124.122C93.0456 123.966 93.3638 123.85 93.7118 123.774C94.0632 123.695 94.4161 123.632 94.7708 123.585C95.2348 123.526 95.611 123.481 95.8993 123.451C96.191 123.418 96.4031 123.363 96.5357 123.287C96.6716 123.211 96.7395 123.078 96.7395 122.889V122.849C96.7395 122.359 96.6053 121.978 96.3368 121.706C96.0717 121.434 95.669 121.298 95.1287 121.298C94.5686 121.298 94.1294 121.421 93.8113 121.666C93.4931 121.911 93.2694 122.173 93.1401 122.452L92.0265 122.054C92.2253 121.59 92.4905 121.229 92.8219 120.97C93.1567 120.708 93.5212 120.526 93.9157 120.423C94.3134 120.317 94.7045 120.264 95.089 120.264C95.3342 120.264 95.6159 120.294 95.9341 120.354C96.2556 120.41 96.5655 120.528 96.8638 120.707C97.1654 120.886 97.4157 121.156 97.6145 121.517C97.8134 121.878 97.9128 122.362 97.9128 122.969V128H96.7395V126.966H96.6799C96.6003 127.132 96.4677 127.309 96.2821 127.498C96.0965 127.687 95.8496 127.848 95.5414 127.98C95.2331 128.113 94.8569 128.179 94.4128 128.179ZM94.5918 127.125C95.0558 127.125 95.4469 127.034 95.7651 126.852C96.0866 126.669 96.3285 126.434 96.4909 126.146C96.6567 125.857 96.7395 125.554 96.7395 125.236V124.162C96.6898 124.222 96.5804 124.276 96.4114 124.326C96.2457 124.372 96.0534 124.414 95.8347 124.45C95.6193 124.483 95.4088 124.513 95.2033 124.54C95.0011 124.563 94.8371 124.583 94.7111 124.599C94.4062 124.639 94.1212 124.704 93.856 124.793C93.5942 124.879 93.382 125.01 93.2196 125.186C93.0605 125.358 92.981 125.594 92.981 125.892C92.981 126.3 93.1318 126.608 93.4334 126.817C93.7383 127.022 94.1245 127.125 94.5918 127.125ZM103.176 130.188V126.906H103.813C103.969 126.744 104.103 126.568 104.216 126.379C104.328 126.19 104.426 125.967 104.509 125.708C104.595 125.446 104.668 125.128 104.728 124.754C104.787 124.376 104.84 123.92 104.887 123.386L105.145 120.364H109.998V126.906H111.171V130.188H109.998V128H104.35V130.188H103.176ZM105.145 126.906H108.824V121.457H106.239L106.04 123.386C105.957 124.185 105.855 124.883 105.732 125.479C105.609 126.076 105.414 126.552 105.145 126.906ZM115.83 128.159C115.141 128.159 114.536 127.995 114.016 127.667C113.499 127.339 113.094 126.88 112.803 126.29C112.514 125.7 112.37 125.01 112.37 124.222C112.37 123.426 112.514 122.732 112.803 122.138C113.094 121.545 113.499 121.085 114.016 120.756C114.536 120.428 115.141 120.264 115.83 120.264C116.52 120.264 117.123 120.428 117.64 120.756C118.16 121.085 118.565 121.545 118.853 122.138C119.145 122.732 119.291 123.426 119.291 124.222C119.291 125.01 119.145 125.7 118.853 126.29C118.565 126.88 118.16 127.339 117.64 127.667C117.123 127.995 116.52 128.159 115.83 128.159ZM115.83 127.105C116.354 127.105 116.785 126.971 117.123 126.702C117.461 126.434 117.711 126.081 117.874 125.643C118.036 125.206 118.117 124.732 118.117 124.222C118.117 123.711 118.036 123.236 117.874 122.795C117.711 122.354 117.461 121.998 117.123 121.726C116.785 121.454 116.354 121.318 115.83 121.318C115.307 121.318 114.876 121.454 114.538 121.726C114.2 121.998 113.95 122.354 113.787 122.795C113.625 123.236 113.544 123.711 113.544 124.222C113.544 124.732 113.625 125.206 113.787 125.643C113.95 126.081 114.2 126.434 114.538 126.702C114.876 126.971 115.307 127.105 115.83 127.105ZM124.184 128.159C123.468 128.159 122.852 127.99 122.335 127.652C121.817 127.314 121.42 126.848 121.141 126.255C120.863 125.662 120.724 124.984 120.724 124.222C120.724 123.446 120.866 122.762 121.151 122.168C121.44 121.572 121.841 121.106 122.354 120.771C122.871 120.433 123.475 120.264 124.164 120.264C124.701 120.264 125.185 120.364 125.616 120.562C126.047 120.761 126.4 121.04 126.675 121.398C126.95 121.756 127.121 122.173 127.187 122.651H126.013C125.924 122.303 125.725 121.994 125.417 121.726C125.112 121.454 124.701 121.318 124.184 121.318C123.727 121.318 123.326 121.437 122.981 121.676C122.639 121.911 122.373 122.245 122.18 122.675C121.991 123.103 121.897 123.605 121.897 124.182C121.897 124.772 121.99 125.286 122.175 125.723C122.364 126.161 122.629 126.5 122.971 126.742C123.316 126.984 123.72 127.105 124.184 127.105C124.489 127.105 124.766 127.052 125.014 126.946C125.263 126.84 125.473 126.688 125.646 126.489C125.818 126.29 125.941 126.051 126.013 125.773H127.187C127.121 126.223 126.956 126.629 126.695 126.991C126.436 127.349 126.093 127.634 125.665 127.846C125.241 128.055 124.747 128.159 124.184 128.159ZM128.3 121.457V120.364H134.505V121.457H131.999V128H130.826V121.457H128.3ZM136.972 130.864C136.773 130.864 136.596 130.847 136.44 130.814C136.284 130.784 136.177 130.754 136.117 130.724L136.415 129.69C136.7 129.763 136.952 129.79 137.171 129.77C137.39 129.75 137.584 129.652 137.753 129.477C137.925 129.304 138.082 129.024 138.225 128.636L138.444 128.04L135.62 120.364H136.893L139.001 126.449H139.08L141.188 120.364H142.461L139.219 129.114C139.073 129.508 138.893 129.835 138.677 130.093C138.462 130.355 138.212 130.549 137.927 130.675C137.645 130.801 137.327 130.864 136.972 130.864ZM144.009 128V120.364H150.015V128H148.842V121.457H145.183V128H144.009ZM157.269 123.645V124.739H153.053V123.645H157.269ZM153.331 120.364V128H152.158V120.364H153.331ZM158.164 120.364V128H156.99V120.364H158.164ZM163.409 128.159C162.719 128.159 162.114 127.995 161.594 127.667C161.077 127.339 160.673 126.88 160.381 126.29C160.093 125.7 159.948 125.01 159.948 124.222C159.948 123.426 160.093 122.732 160.381 122.138C160.673 121.545 161.077 121.085 161.594 120.756C162.114 120.428 162.719 120.264 163.409 120.264C164.098 120.264 164.701 120.428 165.218 120.756C165.739 121.085 166.143 121.545 166.431 122.138C166.723 122.732 166.869 123.426 166.869 124.222C166.869 125.01 166.723 125.7 166.431 126.29C166.143 126.88 165.739 127.339 165.218 127.667C164.701 127.995 164.098 128.159 163.409 128.159ZM163.409 127.105C163.932 127.105 164.363 126.971 164.701 126.702C165.039 126.434 165.289 126.081 165.452 125.643C165.614 125.206 165.695 124.732 165.695 124.222C165.695 123.711 165.614 123.236 165.452 122.795C165.289 122.354 165.039 121.998 164.701 121.726C164.363 121.454 163.932 121.318 163.409 121.318C162.885 121.318 162.454 121.454 162.116 121.726C161.778 121.998 161.528 122.354 161.365 122.795C161.203 123.236 161.122 123.711 161.122 124.222C161.122 124.732 161.203 125.206 161.365 125.643C161.528 126.081 161.778 126.434 162.116 126.702C162.454 126.971 162.885 127.105 163.409 127.105ZM171.762 128.159C171.046 128.159 170.43 127.99 169.913 127.652C169.396 127.314 168.998 126.848 168.719 126.255C168.441 125.662 168.302 124.984 168.302 124.222C168.302 123.446 168.444 122.762 168.729 122.168C169.018 121.572 169.419 121.106 169.933 120.771C170.45 120.433 171.053 120.264 171.742 120.264C172.279 120.264 172.763 120.364 173.194 120.562C173.625 120.761 173.978 121.04 174.253 121.398C174.528 121.756 174.699 122.173 174.765 122.651H173.592C173.502 122.303 173.303 121.994 172.995 121.726C172.69 121.454 172.279 121.318 171.762 121.318C171.305 121.318 170.904 121.437 170.559 121.676C170.218 121.911 169.951 122.245 169.759 122.675C169.57 123.103 169.475 123.605 169.475 124.182C169.475 124.772 169.568 125.286 169.754 125.723C169.942 126.161 170.208 126.5 170.549 126.742C170.894 126.984 171.298 127.105 171.762 127.105C172.067 127.105 172.344 127.052 172.592 126.946C172.841 126.84 173.051 126.688 173.224 126.489C173.396 126.29 173.519 126.051 173.592 125.773H174.765C174.699 126.223 174.535 126.629 174.273 126.991C174.014 127.349 173.671 127.634 173.244 127.846C172.819 128.055 172.326 128.159 171.762 128.159ZM175.879 121.457V120.364H182.083V121.457H179.577V128H178.404V121.457H175.879ZM184.968 126.27L188.647 120.364H189.999V128H188.826V122.094L185.167 128H183.795V120.364H184.968V126.27ZM199.188 128.159C198.498 128.159 197.894 127.995 197.373 127.667C196.856 127.339 196.452 126.88 196.16 126.29C195.872 125.7 195.728 125.01 195.728 124.222C195.728 123.426 195.872 122.732 196.16 122.138C196.452 121.545 196.856 121.085 197.373 120.756C197.894 120.428 198.498 120.264 199.188 120.264C199.877 120.264 200.48 120.428 200.998 120.756C201.518 121.085 201.922 121.545 202.211 122.138C202.502 122.732 202.648 123.426 202.648 124.222C202.648 125.01 202.502 125.7 202.211 126.29C201.922 126.88 201.518 127.339 200.998 127.667C200.48 127.995 199.877 128.159 199.188 128.159ZM199.188 127.105C199.712 127.105 200.142 126.971 200.48 126.702C200.819 126.434 201.069 126.081 201.231 125.643C201.394 125.206 201.475 124.732 201.475 124.222C201.475 123.711 201.394 123.236 201.231 122.795C201.069 122.354 200.819 121.998 200.48 121.726C200.142 121.454 199.712 121.318 199.188 121.318C198.664 121.318 198.233 121.454 197.895 121.726C197.557 121.998 197.307 122.354 197.145 122.795C196.982 123.236 196.901 123.711 196.901 124.222C196.901 124.732 196.982 125.206 197.145 125.643C197.307 126.081 197.557 126.434 197.895 126.702C198.233 126.971 198.664 127.105 199.188 127.105ZM207.541 130.605V117.818H208.715V130.605H207.541ZM207.541 128.159C207.024 128.159 206.554 128.066 206.129 127.881C205.705 127.692 205.341 127.425 205.036 127.08C204.731 126.732 204.495 126.316 204.33 125.832C204.164 125.348 204.081 124.812 204.081 124.222C204.081 123.625 204.164 123.085 204.33 122.601C204.495 122.114 204.731 121.696 205.036 121.348C205.341 121 205.705 120.733 206.129 120.548C206.554 120.359 207.024 120.264 207.541 120.264H207.899V128.159H207.541ZM207.541 127.105H207.74V121.318H207.541C207.15 121.318 206.811 121.398 206.522 121.557C206.234 121.713 205.995 121.926 205.806 122.198C205.621 122.467 205.481 122.775 205.389 123.123C205.299 123.471 205.254 123.837 205.254 124.222C205.254 124.732 205.336 125.206 205.498 125.643C205.66 126.081 205.911 126.434 206.249 126.702C206.587 126.971 207.018 127.105 207.541 127.105ZM208.715 128.159H208.357V120.264H208.715C209.232 120.264 209.702 120.359 210.127 120.548C210.551 120.733 210.915 121 211.22 121.348C211.525 121.696 211.761 122.114 211.926 122.601C212.092 123.085 212.175 123.625 212.175 124.222C212.175 124.812 212.092 125.348 211.926 125.832C211.761 126.316 211.525 126.732 211.22 127.08C210.915 127.425 210.551 127.692 210.127 127.881C209.702 128.066 209.232 128.159 208.715 128.159ZM208.715 127.105C209.109 127.105 209.449 127.029 209.734 126.876C210.022 126.721 210.259 126.509 210.445 126.24C210.634 125.968 210.773 125.66 210.862 125.315C210.955 124.967 211.002 124.603 211.002 124.222C211.002 123.711 210.92 123.236 210.758 122.795C210.596 122.354 210.345 121.998 210.007 121.726C209.669 121.454 209.238 121.318 208.715 121.318H208.516V127.105H208.715ZM215.142 126.27L218.821 120.364H220.173V128H219V122.094L215.341 128H213.968V120.364H215.142V126.27ZM225.424 128.159C224.708 128.159 224.092 127.99 223.575 127.652C223.058 127.314 222.66 126.848 222.382 126.255C222.103 125.662 221.964 124.984 221.964 124.222C221.964 123.446 222.106 122.762 222.392 122.168C222.68 121.572 223.081 121.106 223.595 120.771C224.112 120.433 224.715 120.264 225.404 120.264C225.941 120.264 226.425 120.364 226.856 120.562C227.287 120.761 227.64 121.04 227.915 121.398C228.19 121.756 228.361 122.173 228.427 122.651H227.254C227.164 122.303 226.965 121.994 226.657 121.726C226.352 121.454 225.941 121.318 225.424 121.318C224.967 121.318 224.566 121.437 224.221 121.676C223.88 121.911 223.613 122.245 223.421 122.675C223.232 123.103 223.137 123.605 223.137 124.182C223.137 124.772 223.23 125.286 223.416 125.723C223.605 126.161 223.87 126.5 224.211 126.742C224.556 126.984 224.96 127.105 225.424 127.105C225.729 127.105 226.006 127.052 226.254 126.946C226.503 126.84 226.713 126.688 226.886 126.489C227.058 126.29 227.181 126.051 227.254 125.773H228.427C228.361 126.223 228.197 126.629 227.935 126.991C227.676 127.349 227.333 127.634 226.906 127.846C226.481 128.055 225.988 128.159 225.424 128.159ZM232.389 128.179C231.905 128.179 231.466 128.088 231.072 127.906C230.677 127.72 230.364 127.453 230.132 127.105C229.9 126.754 229.784 126.33 229.784 125.832C229.784 125.395 229.87 125.04 230.043 124.768C230.215 124.493 230.445 124.278 230.734 124.122C231.022 123.966 231.34 123.85 231.688 123.774C232.04 123.695 232.393 123.632 232.747 123.585C233.211 123.526 233.588 123.481 233.876 123.451C234.168 123.418 234.38 123.363 234.512 123.287C234.648 123.211 234.716 123.078 234.716 122.889V122.849C234.716 122.359 234.582 121.978 234.313 121.706C234.048 121.434 233.646 121.298 233.105 121.298C232.545 121.298 232.106 121.421 231.788 121.666C231.47 121.911 231.246 122.173 231.117 122.452L230.003 122.054C230.202 121.59 230.467 121.229 230.798 120.97C231.133 120.708 231.498 120.526 231.892 120.423C232.29 120.317 232.681 120.264 233.066 120.264C233.311 120.264 233.593 120.294 233.911 120.354C234.232 120.41 234.542 120.528 234.84 120.707C235.142 120.886 235.392 121.156 235.591 121.517C235.79 121.878 235.889 122.362 235.889 122.969V128H234.716V126.966H234.656C234.577 127.132 234.444 127.309 234.259 127.498C234.073 127.687 233.826 127.848 233.518 127.98C233.21 128.113 232.834 128.179 232.389 128.179ZM232.568 127.125C233.032 127.125 233.423 127.034 233.742 126.852C234.063 126.669 234.305 126.434 234.468 126.146C234.633 125.857 234.716 125.554 234.716 125.236V124.162C234.666 124.222 234.557 124.276 234.388 124.326C234.222 124.372 234.03 124.414 233.811 124.45C233.596 124.483 233.385 124.513 233.18 124.54C232.978 124.563 232.814 124.583 232.688 124.599C232.383 124.639 232.098 124.704 231.833 124.793C231.571 124.879 231.359 125.01 231.196 125.186C231.037 125.358 230.958 125.594 230.958 125.892C230.958 126.3 231.108 126.608 231.41 126.817C231.715 127.022 232.101 127.125 232.568 127.125Z" fill="#655AA8"/>
</svg>
