<svg width="269" height="186" viewBox="0 0 269 186" fill="none" xmlns="http://www.w3.org/2000/svg">
<rect width="269" height="186" rx="8" fill="#302257"/>
<path d="M82.9732 27V16.8182H86.5328C87.2421 16.8182 87.8271 16.9408 88.2878 17.1861C88.7485 17.428 89.0916 17.7545 89.3169 18.1655C89.5423 18.5732 89.655 19.0256 89.655 19.5227C89.655 19.9602 89.5771 20.3215 89.4213 20.6065C89.2689 20.8916 89.0667 21.117 88.8148 21.2827C88.5662 21.4484 88.2961 21.571 88.0044 21.6506V21.75C88.316 21.7699 88.6292 21.8793 88.9441 22.0781C89.2589 22.277 89.5224 22.562 89.7346 22.9332C89.9467 23.3045 90.0527 23.7585 90.0527 24.2955C90.0527 24.8059 89.9367 25.2649 89.7047 25.6726C89.4727 26.0803 89.1065 26.4034 88.606 26.642C88.1055 26.8807 87.4542 27 86.6522 27H82.9732ZM84.2061 25.9062H86.6522C87.4576 25.9062 88.0293 25.7505 88.3674 25.4389C88.7087 25.1241 88.8794 24.7429 88.8794 24.2955C88.8794 23.9508 88.7916 23.6326 88.6159 23.3409C88.4403 23.0459 88.19 22.8106 87.8652 22.6349C87.5404 22.456 87.156 22.3665 86.7118 22.3665H84.2061V25.9062ZM84.2061 21.2926H86.4931C86.8643 21.2926 87.199 21.2197 87.4973 21.0739C87.7989 20.928 88.0376 20.7225 88.2132 20.4574C88.3922 20.1922 88.4817 19.8807 88.4817 19.5227C88.4817 19.0753 88.3259 18.6958 88.0144 18.3842C87.7028 18.0694 87.209 17.9119 86.5328 17.9119H84.2061V21.2926ZM92.9338 22.1278H95.1213C96.0162 22.1278 96.7006 22.3549 97.1745 22.8089C97.6485 23.263 97.8855 23.8381 97.8855 24.5341C97.8855 24.9915 97.7794 25.4074 97.5673 25.782C97.3552 26.1532 97.0436 26.4498 96.6326 26.6719C96.2217 26.8906 95.7179 27 95.1213 27H91.9196V19.3636H93.0929V25.9062H95.1213C95.5853 25.9062 95.9664 25.7836 96.2647 25.5384C96.563 25.2931 96.7122 24.9782 96.7122 24.5938C96.7122 24.1894 96.563 23.8596 96.2647 23.6044C95.9664 23.3492 95.5853 23.2216 95.1213 23.2216H92.9338V22.1278ZM99.0985 27V19.3636H100.272V27H99.0985ZM108.087 16.5L108.684 17.2159C108.452 17.4413 108.183 17.5987 107.878 17.6882C107.573 17.7777 107.229 17.8324 106.844 17.8523C106.46 17.8722 106.032 17.892 105.562 17.9119C105.031 17.9318 104.592 18.0611 104.244 18.2997C103.896 18.5384 103.628 18.883 103.439 19.3338C103.25 19.7846 103.129 20.3381 103.076 20.9943H103.175C103.434 20.517 103.792 20.1657 104.249 19.9403C104.706 19.715 105.197 19.6023 105.721 19.6023C106.317 19.6023 106.854 19.7415 107.331 20.0199C107.809 20.2983 108.187 20.7109 108.465 21.2578C108.743 21.8047 108.883 22.4792 108.883 23.2812C108.883 24.08 108.74 24.7694 108.455 25.3494C108.173 25.9295 107.777 26.3769 107.267 26.6918C106.76 27.0033 106.165 27.1591 105.482 27.1591C104.799 27.1591 104.201 26.9983 103.687 26.6768C103.174 26.352 102.774 25.8714 102.489 25.2351C102.204 24.5954 102.062 23.8049 102.062 22.8636V22.0483C102.062 20.348 102.35 19.0587 102.927 18.1804C103.507 17.3021 104.378 16.848 105.542 16.8182C105.953 16.8049 106.319 16.8016 106.64 16.8082C106.962 16.8149 107.242 16.8 107.481 16.7635C107.719 16.727 107.921 16.6392 108.087 16.5ZM105.482 26.1051C105.943 26.1051 106.339 25.9891 106.67 25.7571C107.005 25.5251 107.262 25.1986 107.441 24.7777C107.62 24.3535 107.709 23.8546 107.709 23.2812C107.709 22.7244 107.618 22.2505 107.436 21.8594C107.257 21.4683 107 21.17 106.665 20.9645C106.331 20.759 105.93 20.6562 105.462 20.6562C105.121 20.6562 104.814 20.7143 104.542 20.8303C104.271 20.9463 104.039 21.117 103.846 21.3423C103.654 21.5677 103.505 21.8428 103.399 22.1676C103.296 22.4924 103.242 22.8636 103.235 23.2812C103.235 24.1364 103.435 24.8208 103.836 25.3345C104.238 25.8482 104.786 26.1051 105.482 26.1051ZM113.879 27.1591C113.143 27.1591 112.509 26.9967 111.975 26.6719C111.445 26.3438 111.035 25.8864 110.747 25.2997C110.462 24.7098 110.319 24.0237 110.319 23.2415C110.319 22.4593 110.462 21.7699 110.747 21.1733C111.035 20.5734 111.436 20.1061 111.95 19.7713C112.467 19.4332 113.07 19.2642 113.76 19.2642C114.157 19.2642 114.55 19.3305 114.938 19.4631C115.326 19.5956 115.679 19.8111 115.997 20.1094C116.315 20.4044 116.569 20.7955 116.758 21.2827C116.947 21.7699 117.041 22.3698 117.041 23.0824V23.5795H111.155V22.5653H115.848C115.848 22.1345 115.762 21.75 115.589 21.4119C115.42 21.0739 115.178 20.8071 114.863 20.6115C114.552 20.416 114.184 20.3182 113.76 20.3182C113.292 20.3182 112.888 20.4342 112.547 20.6662C112.209 20.8949 111.948 21.1932 111.766 21.5611C111.584 21.929 111.493 22.3234 111.493 22.7443V23.4205C111.493 23.9972 111.592 24.486 111.791 24.8871C111.993 25.2848 112.273 25.5881 112.631 25.7969C112.989 26.0024 113.405 26.1051 113.879 26.1051C114.187 26.1051 114.466 26.062 114.714 25.9759C114.966 25.8864 115.183 25.7538 115.366 25.5781C115.548 25.3991 115.689 25.1771 115.788 24.9119L116.922 25.2301C116.802 25.6146 116.602 25.9527 116.32 26.2443C116.038 26.5327 115.69 26.758 115.276 26.9205C114.862 27.0795 114.396 27.1591 113.879 27.1591ZM118.826 29.8636V19.3636H119.959V20.5767H120.099C120.185 20.4441 120.304 20.2751 120.456 20.0696C120.612 19.8608 120.834 19.6752 121.123 19.5128C121.414 19.3471 121.809 19.2642 122.306 19.2642C122.949 19.2642 123.516 19.425 124.006 19.7464C124.497 20.0679 124.88 20.5237 125.155 21.1136C125.43 21.7036 125.567 22.3996 125.567 23.2017C125.567 24.0104 125.43 24.7114 125.155 25.3047C124.88 25.8946 124.498 26.352 124.011 26.6768C123.524 26.9983 122.962 27.1591 122.326 27.1591C121.835 27.1591 121.443 27.0779 121.148 26.9155C120.853 26.7498 120.626 26.5625 120.466 26.3537C120.307 26.1416 120.185 25.9659 120.099 25.8267H119.999V29.8636H118.826ZM119.979 23.1818C119.979 23.7585 120.064 24.2673 120.233 24.7081C120.402 25.1456 120.649 25.4886 120.974 25.7372C121.298 25.9825 121.696 26.1051 122.167 26.1051C122.657 26.1051 123.067 25.9759 123.395 25.7173C123.726 25.4555 123.975 25.1042 124.14 24.6634C124.309 24.2192 124.394 23.7254 124.394 23.1818C124.394 22.6449 124.311 22.161 124.145 21.7301C123.983 21.2959 123.736 20.9529 123.405 20.701C123.077 20.4458 122.664 20.3182 122.167 20.3182C121.689 20.3182 121.288 20.4392 120.964 20.6811C120.639 20.9197 120.394 21.2545 120.228 21.6854C120.062 22.1129 119.979 22.6117 119.979 23.1818ZM128.53 25.2699L132.209 19.3636H133.562V27H132.388V21.0938L128.729 27H127.357V19.3636H128.53V25.2699ZM134.672 20.4574V19.3636H140.876V20.4574H138.37V27H137.197V20.4574H134.672ZM145.393 27.1591C144.657 27.1591 144.022 26.9967 143.489 26.6719C142.958 26.3438 142.549 25.8864 142.261 25.2997C141.976 24.7098 141.833 24.0237 141.833 23.2415C141.833 22.4593 141.976 21.7699 142.261 21.1733C142.549 20.5734 142.95 20.1061 143.464 19.7713C143.981 19.4332 144.584 19.2642 145.273 19.2642C145.671 19.2642 146.064 19.3305 146.452 19.4631C146.839 19.5956 147.192 19.8111 147.511 20.1094C147.829 20.4044 148.082 20.7955 148.271 21.2827C148.46 21.7699 148.555 22.3698 148.555 23.0824V23.5795H142.668V22.5653H147.362C147.362 22.1345 147.275 21.75 147.103 21.4119C146.934 21.0739 146.692 20.8071 146.377 20.6115C146.066 20.416 145.698 20.3182 145.273 20.3182C144.806 20.3182 144.402 20.4342 144.06 20.6662C143.722 20.8949 143.462 21.1932 143.28 21.5611C143.098 21.929 143.006 22.3234 143.006 22.7443V23.4205C143.006 23.9972 143.106 24.486 143.305 24.8871C143.507 25.2848 143.787 25.5881 144.145 25.7969C144.503 26.0024 144.919 26.1051 145.393 26.1051C145.701 26.1051 145.979 26.062 146.228 25.9759C146.48 25.8864 146.697 25.7538 146.879 25.5781C147.062 25.3991 147.202 25.1771 147.302 24.9119L148.435 25.2301C148.316 25.6146 148.116 25.9527 147.834 26.2443C147.552 26.5327 147.204 26.758 146.79 26.9205C146.375 27.0795 145.91 27.1591 145.393 27.1591ZM157.379 27.1591C156.69 27.1591 156.085 26.995 155.565 26.6669C155.048 26.3388 154.643 25.8797 154.352 25.2898C154.063 24.6998 153.919 24.0104 153.919 23.2216C153.919 22.4261 154.063 21.7318 154.352 21.1385C154.643 20.5452 155.048 20.0845 155.565 19.7564C156.085 19.4283 156.69 19.2642 157.379 19.2642C158.069 19.2642 158.672 19.4283 159.189 19.7564C159.709 20.0845 160.114 20.5452 160.402 21.1385C160.694 21.7318 160.839 22.4261 160.839 23.2216C160.839 24.0104 160.694 24.6998 160.402 25.2898C160.114 25.8797 159.709 26.3388 159.189 26.6669C158.672 26.995 158.069 27.1591 157.379 27.1591ZM157.379 26.1051C157.903 26.1051 158.334 25.9709 158.672 25.7024C159.01 25.4339 159.26 25.081 159.423 24.6435C159.585 24.206 159.666 23.732 159.666 23.2216C159.666 22.7112 159.585 22.2356 159.423 21.7947C159.26 21.3539 159.01 20.9976 158.672 20.7259C158.334 20.4541 157.903 20.3182 157.379 20.3182C156.856 20.3182 156.425 20.4541 156.087 20.7259C155.749 20.9976 155.498 21.3539 155.336 21.7947C155.174 22.2356 155.092 22.7112 155.092 23.2216C155.092 23.732 155.174 24.206 155.336 24.6435C155.498 25.081 155.749 25.4339 156.087 25.7024C156.425 25.9709 156.856 26.1051 157.379 26.1051ZM165.733 29.6051V16.8182H166.906V29.6051H165.733ZM165.733 27.1591C165.216 27.1591 164.745 27.0663 164.321 26.8807C163.897 26.6918 163.532 26.425 163.227 26.0803C162.922 25.7322 162.687 25.3163 162.521 24.8324C162.355 24.3485 162.273 23.8116 162.273 23.2216C162.273 22.625 162.355 22.0848 162.521 21.6009C162.687 21.1136 162.922 20.696 163.227 20.348C163.532 20 163.897 19.7332 164.321 19.5476C164.745 19.3587 165.216 19.2642 165.733 19.2642H166.091V27.1591H165.733ZM165.733 26.1051H165.932V20.3182H165.733C165.342 20.3182 165.002 20.3977 164.714 20.5568C164.425 20.7126 164.187 20.9264 163.998 21.1982C163.812 21.4666 163.673 21.7749 163.58 22.1229C163.491 22.4709 163.446 22.8371 163.446 23.2216C163.446 23.732 163.527 24.206 163.689 24.6435C163.852 25.081 164.102 25.4339 164.44 25.7024C164.778 25.9709 165.209 26.1051 165.733 26.1051ZM166.906 27.1591H166.548V19.2642H166.906C167.423 19.2642 167.894 19.3587 168.318 19.5476C168.742 19.7332 169.107 20 169.412 20.348C169.717 20.696 169.952 21.1136 170.118 21.6009C170.283 22.0848 170.366 22.625 170.366 23.2216C170.366 23.8116 170.283 24.3485 170.118 24.8324C169.952 25.3163 169.717 25.7322 169.412 26.0803C169.107 26.425 168.742 26.6918 168.318 26.8807C167.894 27.0663 167.423 27.1591 166.906 27.1591ZM166.906 26.1051C167.3 26.1051 167.64 26.0289 167.925 25.8764C168.214 25.7206 168.451 25.5085 168.636 25.2401C168.825 24.9683 168.964 24.66 169.054 24.3153C169.147 23.9673 169.193 23.6027 169.193 23.2216C169.193 22.7112 169.112 22.2356 168.949 21.7947C168.787 21.3539 168.537 20.9976 168.199 20.7259C167.861 20.4541 167.43 20.3182 166.906 20.3182H166.707V26.1051H166.906ZM173.333 25.2699L177.012 19.3636H178.364V27H177.191V21.0938L173.532 27H172.16V19.3636H173.333V25.2699ZM183.616 27.1591C182.9 27.1591 182.283 26.9901 181.766 26.652C181.249 26.3139 180.851 25.8482 180.573 25.255C180.295 24.6617 180.155 23.9839 180.155 23.2216C180.155 22.446 180.298 21.7616 180.583 21.1683C180.871 20.5717 181.272 20.1061 181.786 19.7713C182.303 19.4332 182.906 19.2642 183.596 19.2642C184.133 19.2642 184.617 19.3636 185.047 19.5625C185.478 19.7614 185.831 20.0398 186.106 20.3977C186.381 20.7557 186.552 21.1733 186.618 21.6506H185.445C185.356 21.3026 185.157 20.9943 184.849 20.7259C184.544 20.4541 184.133 20.3182 183.616 20.3182C183.158 20.3182 182.757 20.4375 182.412 20.6761C182.071 20.9115 181.804 21.2446 181.612 21.6754C181.423 22.103 181.329 22.6051 181.329 23.1818C181.329 23.7718 181.421 24.2855 181.607 24.723C181.796 25.1605 182.061 25.5002 182.403 25.7422C182.747 25.9841 183.152 26.1051 183.616 26.1051C183.921 26.1051 184.197 26.0521 184.446 25.946C184.694 25.84 184.905 25.6875 185.077 25.4886C185.25 25.2898 185.372 25.0511 185.445 24.7727H186.618C186.552 25.2235 186.388 25.6295 186.126 25.9908C185.868 26.3487 185.525 26.6338 185.097 26.8459C184.673 27.0547 184.179 27.1591 183.616 27.1591Z" fill="#655AA8"/>
<rect x="14" y="71" width="117" height="48" rx="4" fill="#413585"/>
<rect x="138" y="71" width="117" height="48" rx="4" fill="#413585"/>
<rect x="14" y="126" width="117" height="48" rx="4" fill="#413585"/>
<rect x="138" y="126" width="117" height="48" rx="4" fill="#413585"/>
</svg>
