<svg width="269" height="186" viewBox="0 0 269 186" fill="none" xmlns="http://www.w3.org/2000/svg">
<rect width="269" height="186" rx="8" fill="#302257"/>
<path d="M79.1314 27V16.8182H82.6911C83.4003 16.8182 83.9853 16.9408 84.446 17.1861C84.9067 17.428 85.2498 17.7545 85.4751 18.1655C85.7005 18.5732 85.8132 19.0256 85.8132 19.5227C85.8132 19.9602 85.7353 20.3215 85.5795 20.6065C85.4271 20.8916 85.2249 21.117 84.973 21.2827C84.7244 21.4484 84.4543 21.571 84.1626 21.6506V21.75C84.4742 21.7699 84.7874 21.8793 85.1023 22.0781C85.4171 22.277 85.6806 22.562 85.8928 22.9332C86.1049 23.3045 86.2109 23.7585 86.2109 24.2955C86.2109 24.8059 86.0949 25.2649 85.8629 25.6726C85.6309 26.0803 85.2647 26.4034 84.7642 26.642C84.2637 26.8807 83.6125 27 82.8104 27H79.1314ZM80.3643 25.9062H82.8104C83.6158 25.9062 84.1875 25.7505 84.5256 25.4389C84.867 25.1241 85.0376 24.7429 85.0376 24.2955C85.0376 23.9508 84.9498 23.6326 84.7741 23.3409C84.5985 23.0459 84.3482 22.8106 84.0234 22.6349C83.6986 22.456 83.3142 22.3665 82.87 22.3665H80.3643V25.9062ZM80.3643 21.2926H82.6513C83.0225 21.2926 83.3572 21.2197 83.6555 21.0739C83.9571 20.928 84.1958 20.7225 84.3714 20.4574C84.5504 20.1922 84.6399 19.8807 84.6399 19.5227C84.6399 19.0753 84.4841 18.6958 84.1726 18.3842C83.861 18.0694 83.3672 17.9119 82.6911 17.9119H80.3643V21.2926ZM89.092 22.1278H91.2795C92.1744 22.1278 92.8588 22.3549 93.3327 22.8089C93.8067 23.263 94.0437 23.8381 94.0437 24.5341C94.0437 24.9915 93.9376 25.4074 93.7255 25.782C93.5134 26.1532 93.2018 26.4498 92.7908 26.6719C92.3799 26.8906 91.8761 27 91.2795 27H88.0778V19.3636H89.2511V25.9062H91.2795C91.7435 25.9062 92.1246 25.7836 92.4229 25.5384C92.7212 25.2931 92.8704 24.9782 92.8704 24.5938C92.8704 24.1894 92.7212 23.8596 92.4229 23.6044C92.1246 23.3492 91.7435 23.2216 91.2795 23.2216H89.092V22.1278ZM95.2567 27V19.3636H96.43V27H95.2567ZM104.245 16.5L104.842 17.2159C104.61 17.4413 104.342 17.5987 104.037 17.6882C103.732 17.7777 103.387 17.8324 103.002 17.8523C102.618 17.8722 102.19 17.892 101.72 17.9119C101.19 17.9318 100.75 18.0611 100.402 18.2997C100.054 18.5384 99.7859 18.883 99.5969 19.3338C99.408 19.7846 99.2871 20.3381 99.234 20.9943H99.3335C99.592 20.517 99.9499 20.1657 100.407 19.9403C100.865 19.715 101.355 19.6023 101.879 19.6023C102.475 19.6023 103.012 19.7415 103.49 20.0199C103.967 20.2983 104.345 20.7109 104.623 21.2578C104.902 21.8047 105.041 22.4792 105.041 23.2812C105.041 24.08 104.898 24.7694 104.613 25.3494C104.332 25.9295 103.935 26.3769 103.425 26.6918C102.918 27.0033 102.323 27.1591 101.64 27.1591C100.958 27.1591 100.359 26.9983 99.8455 26.6768C99.3318 26.352 98.9324 25.8714 98.6474 25.2351C98.3623 24.5954 98.2198 23.8049 98.2198 22.8636V22.0483C98.2198 20.348 98.5082 19.0587 99.0849 18.1804C99.6649 17.3021 100.537 16.848 101.7 16.8182C102.111 16.8049 102.477 16.8016 102.799 16.8082C103.12 16.8149 103.4 16.8 103.639 16.7635C103.877 16.727 104.08 16.6392 104.245 16.5ZM101.64 26.1051C102.101 26.1051 102.497 25.9891 102.828 25.7571C103.163 25.5251 103.42 25.1986 103.599 24.7777C103.778 24.3535 103.868 23.8546 103.868 23.2812C103.868 22.7244 103.776 22.2505 103.594 21.8594C103.415 21.4683 103.158 21.17 102.824 20.9645C102.489 20.759 102.088 20.6562 101.62 20.6562C101.279 20.6562 100.972 20.7143 100.701 20.8303C100.429 20.9463 100.197 21.117 100.005 21.3423C99.8124 21.5677 99.6632 21.8428 99.5572 22.1676C99.4544 22.4924 99.3997 22.8636 99.3931 23.2812C99.3931 24.1364 99.5936 24.8208 99.9947 25.3345C100.396 25.8482 100.944 26.1051 101.64 26.1051ZM110.037 27.1591C109.301 27.1591 108.667 26.9967 108.133 26.6719C107.603 26.3438 107.194 25.8864 106.905 25.2997C106.62 24.7098 106.478 24.0237 106.478 23.2415C106.478 22.4593 106.62 21.7699 106.905 21.1733C107.194 20.5734 107.595 20.1061 108.108 19.7713C108.625 19.4332 109.229 19.2642 109.918 19.2642C110.316 19.2642 110.708 19.3305 111.096 19.4631C111.484 19.5956 111.837 19.8111 112.155 20.1094C112.473 20.4044 112.727 20.7955 112.916 21.2827C113.105 21.7699 113.199 22.3698 113.199 23.0824V23.5795H107.313V22.5653H112.006C112.006 22.1345 111.92 21.75 111.748 21.4119C111.578 21.0739 111.337 20.8071 111.022 20.6115C110.71 20.416 110.342 20.3182 109.918 20.3182C109.451 20.3182 109.046 20.4342 108.705 20.6662C108.367 20.8949 108.107 21.1932 107.924 21.5611C107.742 21.929 107.651 22.3234 107.651 22.7443V23.4205C107.651 23.9972 107.75 24.486 107.949 24.8871C108.151 25.2848 108.431 25.5881 108.789 25.7969C109.147 26.0024 109.563 26.1051 110.037 26.1051C110.346 26.1051 110.624 26.062 110.873 25.9759C111.124 25.8864 111.342 25.7538 111.524 25.5781C111.706 25.3991 111.847 25.1771 111.946 24.9119L113.08 25.2301C112.961 25.6146 112.76 25.9527 112.478 26.2443C112.197 26.5327 111.849 26.758 111.434 26.9205C111.02 27.0795 110.554 27.1591 110.037 27.1591ZM114.984 29.8636V19.3636H116.118V20.5767H116.257C116.343 20.4441 116.462 20.2751 116.615 20.0696C116.77 19.8608 116.993 19.6752 117.281 19.5128C117.573 19.3471 117.967 19.2642 118.464 19.2642C119.107 19.2642 119.674 19.425 120.164 19.7464C120.655 20.0679 121.038 20.5237 121.313 21.1136C121.588 21.7036 121.725 22.3996 121.725 23.2017C121.725 24.0104 121.588 24.7114 121.313 25.3047C121.038 25.8946 120.657 26.352 120.169 26.6768C119.682 26.9983 119.12 27.1591 118.484 27.1591C117.993 27.1591 117.601 27.0779 117.306 26.9155C117.011 26.7498 116.784 26.5625 116.625 26.3537C116.466 26.1416 116.343 25.9659 116.257 25.8267H116.157V29.8636H114.984ZM116.137 23.1818C116.137 23.7585 116.222 24.2673 116.391 24.7081C116.56 25.1456 116.807 25.4886 117.132 25.7372C117.457 25.9825 117.854 26.1051 118.325 26.1051C118.815 26.1051 119.225 25.9759 119.553 25.7173C119.884 25.4555 120.133 25.1042 120.299 24.6634C120.468 24.2192 120.552 23.7254 120.552 23.1818C120.552 22.6449 120.469 22.161 120.304 21.7301C120.141 21.2959 119.894 20.9529 119.563 20.701C119.235 20.4458 118.822 20.3182 118.325 20.3182C117.848 20.3182 117.447 20.4392 117.122 20.6811C116.797 20.9197 116.552 21.2545 116.386 21.6854C116.22 22.1129 116.137 22.6117 116.137 23.1818ZM124.689 25.2699L128.368 19.3636H129.72V27H128.547V21.0938L124.887 27H123.515V19.3636H124.689V25.2699ZM130.83 20.4574V19.3636H137.034V20.4574H134.529V27H133.355V20.4574H130.83ZM141.551 27.1591C140.815 27.1591 140.18 26.9967 139.647 26.6719C139.117 26.3438 138.707 25.8864 138.419 25.2997C138.134 24.7098 137.991 24.0237 137.991 23.2415C137.991 22.4593 138.134 21.7699 138.419 21.1733C138.707 20.5734 139.108 20.1061 139.622 19.7713C140.139 19.4332 140.742 19.2642 141.432 19.2642C141.829 19.2642 142.222 19.3305 142.61 19.4631C142.998 19.5956 143.351 19.8111 143.669 20.1094C143.987 20.4044 144.241 20.7955 144.43 21.2827C144.618 21.7699 144.713 22.3698 144.713 23.0824V23.5795H138.827V22.5653H143.52C143.52 22.1345 143.434 21.75 143.261 21.4119C143.092 21.0739 142.85 20.8071 142.535 20.6115C142.224 20.416 141.856 20.3182 141.432 20.3182C140.964 20.3182 140.56 20.4342 140.219 20.6662C139.881 20.8949 139.62 21.1932 139.438 21.5611C139.256 21.929 139.165 22.3234 139.165 22.7443V23.4205C139.165 23.9972 139.264 24.486 139.463 24.8871C139.665 25.2848 139.945 25.5881 140.303 25.7969C140.661 26.0024 141.077 26.1051 141.551 26.1051C141.859 26.1051 142.138 26.062 142.386 25.9759C142.638 25.8864 142.855 25.7538 143.037 25.5781C143.22 25.3991 143.361 25.1771 143.46 24.9119L144.594 25.2301C144.474 25.6146 144.274 25.9527 143.992 26.2443C143.71 26.5327 143.362 26.758 142.948 26.9205C142.534 27.0795 142.068 27.1591 141.551 27.1591ZM154.611 25.4091L157.276 19.3636H158.39L155.089 27H154.134L150.893 19.3636H151.986L154.611 25.4091ZM151.608 19.3636V27H150.435V19.3636H151.608ZM157.614 27V19.3636H158.787V27H157.614ZM164.137 27.1591C163.401 27.1591 162.766 26.9967 162.233 26.6719C161.702 26.3438 161.293 25.8864 161.005 25.2997C160.72 24.7098 160.577 24.0237 160.577 23.2415C160.577 22.4593 160.72 21.7699 161.005 21.1733C161.293 20.5734 161.694 20.1061 162.208 19.7713C162.725 19.4332 163.328 19.2642 164.018 19.2642C164.415 19.2642 164.808 19.3305 165.196 19.4631C165.584 19.5956 165.937 19.8111 166.255 20.1094C166.573 20.4044 166.827 20.7955 167.015 21.2827C167.204 21.7699 167.299 22.3698 167.299 23.0824V23.5795H161.412V22.5653H166.106C166.106 22.1345 166.019 21.75 165.847 21.4119C165.678 21.0739 165.436 20.8071 165.121 20.6115C164.81 20.416 164.442 20.3182 164.018 20.3182C163.55 20.3182 163.146 20.4342 162.805 20.6662C162.466 20.8949 162.206 21.1932 162.024 21.5611C161.842 21.929 161.751 22.3234 161.751 22.7443V23.4205C161.751 23.9972 161.85 24.486 162.049 24.8871C162.251 25.2848 162.531 25.5881 162.889 25.7969C163.247 26.0024 163.663 26.1051 164.137 26.1051C164.445 26.1051 164.724 26.062 164.972 25.9759C165.224 25.8864 165.441 25.7538 165.623 25.5781C165.806 25.3991 165.947 25.1771 166.046 24.9119L167.18 25.2301C167.06 25.6146 166.86 25.9527 166.578 26.2443C166.296 26.5327 165.948 26.758 165.534 26.9205C165.12 27.0795 164.654 27.1591 164.137 27.1591ZM172.186 27.1591C171.47 27.1591 170.854 26.9901 170.336 26.652C169.819 26.3139 169.422 25.8482 169.143 25.255C168.865 24.6617 168.726 23.9839 168.726 23.2216C168.726 22.446 168.868 21.7616 169.153 21.1683C169.442 20.5717 169.843 20.1061 170.356 19.7713C170.873 19.4332 171.477 19.2642 172.166 19.2642C172.703 19.2642 173.187 19.3636 173.618 19.5625C174.049 19.7614 174.402 20.0398 174.677 20.3977C174.952 20.7557 175.122 21.1733 175.189 21.6506H174.015C173.926 21.3026 173.727 20.9943 173.419 20.7259C173.114 20.4541 172.703 20.3182 172.186 20.3182C171.729 20.3182 171.327 20.4375 170.983 20.6761C170.641 20.9115 170.375 21.2446 170.182 21.6754C169.993 22.103 169.899 22.6051 169.899 23.1818C169.899 23.7718 169.992 24.2855 170.177 24.723C170.366 25.1605 170.631 25.5002 170.973 25.7422C171.318 25.9841 171.722 26.1051 172.186 26.1051C172.491 26.1051 172.768 26.0521 173.016 25.946C173.265 25.84 173.475 25.6875 173.648 25.4886C173.82 25.2898 173.943 25.0511 174.015 24.7727H175.189C175.122 25.2235 174.958 25.6295 174.697 25.9908C174.438 26.3487 174.095 26.6338 173.667 26.8459C173.243 27.0547 172.749 27.1591 172.186 27.1591ZM176.302 20.4574V19.3636H182.507V20.4574H180.001V27H178.828V20.4574H176.302ZM186.924 27.1591C186.235 27.1591 185.63 26.995 185.11 26.6669C184.593 26.3388 184.188 25.8797 183.896 25.2898C183.608 24.6998 183.464 24.0104 183.464 23.2216C183.464 22.4261 183.608 21.7318 183.896 21.1385C184.188 20.5452 184.593 20.0845 185.11 19.7564C185.63 19.4283 186.235 19.2642 186.924 19.2642C187.614 19.2642 188.217 19.4283 188.734 19.7564C189.254 20.0845 189.659 20.5452 189.947 21.1385C190.239 21.7318 190.384 22.4261 190.384 23.2216C190.384 24.0104 190.239 24.6998 189.947 25.2898C189.659 25.8797 189.254 26.3388 188.734 26.6669C188.217 26.995 187.614 27.1591 186.924 27.1591ZM186.924 26.1051C187.448 26.1051 187.879 25.9709 188.217 25.7024C188.555 25.4339 188.805 25.081 188.968 24.6435C189.13 24.206 189.211 23.732 189.211 23.2216C189.211 22.7112 189.13 22.2356 188.968 21.7947C188.805 21.3539 188.555 20.9976 188.217 20.7259C187.879 20.4541 187.448 20.3182 186.924 20.3182C186.401 20.3182 185.97 20.4541 185.632 20.7259C185.294 20.9976 185.043 21.3539 184.881 21.7947C184.718 22.2356 184.637 22.7112 184.637 23.2216C184.637 23.732 184.718 24.206 184.881 24.6435C185.043 25.081 185.294 25.4339 185.632 25.7024C185.97 25.9709 186.401 26.1051 186.924 26.1051Z" fill="#655AA8"/>
<rect x="14" y="62" width="36.25" height="32" rx="4" fill="#413585"/>
<rect x="82.25" y="62" width="36.25" height="32" rx="4" fill="#413585"/>
<rect x="150.5" y="62" width="36.25" height="32" rx="4" fill="#413585"/>
<rect x="218.75" y="62" width="36.25" height="32" rx="4" fill="#413585"/>
<rect x="14" y="102" width="36.25" height="32" rx="4" fill="#413585"/>
<rect x="82.25" y="102" width="36.25" height="32" rx="4" fill="#413585"/>
<rect x="150.5" y="102" width="36.25" height="32" rx="4" fill="#413585"/>
<rect x="218.75" y="102" width="36.25" height="32" rx="4" fill="#413585"/>
<rect x="14" y="142" width="36.25" height="32" rx="4" fill="#413585"/>
<rect x="82.25" y="142" width="36.25" height="32" rx="4" fill="#413585"/>
<rect x="150.5" y="142" width="36.25" height="32" rx="4" fill="#413585"/>
<rect x="218.75" y="142" width="36.25" height="32" rx="4" fill="#413585"/>
</svg>
