<svg width="269" height="186" viewBox="0 0 269 186" fill="none" xmlns="http://www.w3.org/2000/svg">
<rect width="269" height="186" rx="8" fill="#302257"/>
<path d="M134.5 56.3C134.5 54.4775 133.014 52.9747 131.212 53.247C128.029 53.7281 124.976 54.9043 122.277 56.7077C118.66 59.1251 115.84 62.561 114.175 66.581C112.51 70.6009 112.074 75.0244 112.923 79.292C113.772 83.5596 115.867 87.4796 118.944 90.5564C122.02 93.6331 125.94 95.7284 130.208 96.5773C134.476 97.4262 138.899 96.9905 142.919 95.3253C146.939 93.6602 150.375 90.8404 152.792 87.2225C154.596 84.5236 155.772 81.4708 156.253 78.2877C156.525 76.4856 155.023 75 153.2 75C151.377 75 149.935 76.494 149.548 78.2749C149.14 80.1507 148.382 81.9434 147.305 83.5558C145.612 86.0883 143.207 88.0622 140.393 89.2277C137.579 90.3933 134.483 90.6983 131.496 90.1041C128.508 89.5099 125.764 88.0432 123.611 85.8894C121.457 83.7357 119.99 80.9917 119.396 78.0044C118.802 75.0171 119.107 71.9207 120.272 69.1067C121.438 66.2927 123.412 63.8875 125.944 62.1954C127.557 61.118 129.349 60.3605 131.225 59.9522C133.006 59.5646 134.5 58.1225 134.5 56.3Z" fill="#695BB9"/>
<path d="M41.2274 117.818V128H39.9944V118.912H34.8637V128H33.6308V117.818H41.2274ZM43.5553 130.864V120.364H44.6888V121.577H44.828C44.9142 121.444 45.0335 121.275 45.186 121.07C45.3418 120.861 45.5638 120.675 45.8522 120.513C46.1439 120.347 46.5383 120.264 47.0354 120.264C47.6784 120.264 48.2452 120.425 48.7357 120.746C49.2262 121.068 49.609 121.524 49.8841 122.114C50.1592 122.704 50.2968 123.4 50.2968 124.202C50.2968 125.01 50.1592 125.711 49.8841 126.305C49.609 126.895 49.2279 127.352 48.7407 127.677C48.2535 127.998 47.6917 128.159 47.0553 128.159C46.5648 128.159 46.172 128.078 45.877 127.915C45.5821 127.75 45.355 127.562 45.1959 127.354C45.0368 127.142 44.9142 126.966 44.828 126.827H44.7286V130.864H43.5553ZM44.7087 124.182C44.7087 124.759 44.7932 125.267 44.9623 125.708C45.1313 126.146 45.3782 126.489 45.703 126.737C46.0278 126.982 46.4256 127.105 46.8962 127.105C47.3867 127.105 47.7961 126.976 48.1242 126.717C48.4556 126.455 48.7042 126.104 48.8699 125.663C49.039 125.219 49.1235 124.725 49.1235 124.182C49.1235 123.645 49.0406 123.161 48.8749 122.73C48.7125 122.296 48.4656 121.953 48.1341 121.701C47.806 121.446 47.3934 121.318 46.8962 121.318C46.4189 121.318 46.0179 121.439 45.6931 121.681C45.3683 121.92 45.123 122.254 44.9573 122.685C44.7916 123.113 44.7087 123.612 44.7087 124.182ZM55.1888 128.159C54.4994 128.159 53.8946 127.995 53.3742 127.667C52.8572 127.339 52.4528 126.88 52.1611 126.29C51.8728 125.7 51.7286 125.01 51.7286 124.222C51.7286 123.426 51.8728 122.732 52.1611 122.138C52.4528 121.545 52.8572 121.085 53.3742 120.756C53.8946 120.428 54.4994 120.264 55.1888 120.264C55.8782 120.264 56.4814 120.428 56.9985 120.756C57.5189 121.085 57.9232 121.545 58.2116 122.138C58.5032 122.732 58.6491 123.426 58.6491 124.222C58.6491 125.01 58.5032 125.7 58.2116 126.29C57.9232 126.88 57.5189 127.339 56.9985 127.667C56.4814 127.995 55.8782 128.159 55.1888 128.159ZM55.1888 127.105C55.7125 127.105 56.1434 126.971 56.4814 126.702C56.8195 126.434 57.0698 126.081 57.2322 125.643C57.3946 125.206 57.4758 124.732 57.4758 124.222C57.4758 123.711 57.3946 123.236 57.2322 122.795C57.0698 122.354 56.8195 121.998 56.4814 121.726C56.1434 121.454 55.7125 121.318 55.1888 121.318C54.6652 121.318 54.2343 121.454 53.8962 121.726C53.5582 121.998 53.3079 122.354 53.1455 122.795C52.9831 123.236 52.9019 123.711 52.9019 124.222C52.9019 124.732 52.9831 125.206 53.1455 125.643C53.3079 126.081 53.5582 126.434 53.8962 126.702C54.2343 126.971 54.6652 127.105 55.1888 127.105ZM60.4401 128V120.364H63.5622C64.3842 120.364 65.0371 120.549 65.521 120.92C66.0049 121.292 66.2469 121.782 66.2469 122.392C66.2469 122.856 66.1093 123.216 65.8343 123.471C65.5592 123.723 65.2062 123.893 64.7753 123.983C65.057 124.023 65.3305 124.122 65.5956 124.281C65.8641 124.44 66.0861 124.659 66.2618 124.938C66.4375 125.213 66.5253 125.551 66.5253 125.952C66.5253 126.343 66.4259 126.692 66.227 127.001C66.0281 127.309 65.7431 127.553 65.3719 127.732C65.0007 127.911 64.5566 128 64.0395 128H60.4401ZM61.5537 126.926H64.0395C64.4439 126.926 64.7604 126.83 64.9891 126.638C65.2178 126.446 65.3321 126.184 65.3321 125.852C65.3321 125.458 65.2178 125.148 64.9891 124.923C64.7604 124.694 64.4439 124.58 64.0395 124.58H61.5537V126.926ZM61.5537 123.565H63.5622C63.8771 123.565 64.1472 123.522 64.3726 123.436C64.598 123.347 64.7703 123.221 64.8896 123.058C65.0123 122.893 65.0736 122.697 65.0736 122.472C65.0736 122.15 64.9394 121.898 64.6709 121.716C64.4024 121.53 64.0329 121.438 63.5622 121.438H61.5537V123.565ZM71.5031 128.159C70.7673 128.159 70.1326 127.997 69.599 127.672C69.0687 127.344 68.6594 126.886 68.371 126.3C68.086 125.71 67.9434 125.024 67.9434 124.241C67.9434 123.459 68.086 122.77 68.371 122.173C68.6594 121.573 69.0604 121.106 69.5741 120.771C70.0912 120.433 70.6944 120.264 71.3838 120.264C71.7815 120.264 72.1743 120.33 72.5621 120.463C72.9498 120.596 73.3028 120.811 73.621 121.109C73.9392 121.404 74.1927 121.795 74.3817 122.283C74.5706 122.77 74.665 123.37 74.665 124.082V124.58H68.7787V123.565H73.4719C73.4719 123.134 73.3857 122.75 73.2133 122.412C73.0443 122.074 72.8023 121.807 72.4875 121.612C72.1759 121.416 71.808 121.318 71.3838 121.318C70.9165 121.318 70.5121 121.434 70.1707 121.666C69.8327 121.895 69.5725 122.193 69.3902 122.561C69.2079 122.929 69.1167 123.323 69.1167 123.744V124.42C69.1167 124.997 69.2162 125.486 69.415 125.887C69.6172 126.285 69.8973 126.588 70.2552 126.797C70.6132 127.002 71.0291 127.105 71.5031 127.105C71.8113 127.105 72.0898 127.062 72.3383 126.976C72.5902 126.886 72.8073 126.754 72.9896 126.578C73.1719 126.399 73.3128 126.177 73.4122 125.912L74.5457 126.23C74.4264 126.615 74.2259 126.953 73.9442 127.244C73.6624 127.533 73.3144 127.758 72.9001 127.92C72.4858 128.08 72.0202 128.159 71.5031 128.159ZM76.4498 130.864V120.364H77.5834V121.577H77.7226C77.8087 121.444 77.9281 121.275 78.0805 121.07C78.2363 120.861 78.4584 120.675 78.7467 120.513C79.0384 120.347 79.4328 120.264 79.93 120.264C80.5729 120.264 81.1397 120.425 81.6302 120.746C82.1208 121.068 82.5036 121.524 82.7787 122.114C83.0538 122.704 83.1913 123.4 83.1913 124.202C83.1913 125.01 83.0538 125.711 82.7787 126.305C82.5036 126.895 82.1224 127.352 81.6352 127.677C81.148 127.998 80.5862 128.159 79.9498 128.159C79.4593 128.159 79.0666 128.078 78.7716 127.915C78.4766 127.75 78.2496 127.562 78.0905 127.354C77.9314 127.142 77.8087 126.966 77.7226 126.827H77.6231V130.864H76.4498ZM77.6032 124.182C77.6032 124.759 77.6878 125.267 77.8568 125.708C78.0258 126.146 78.2728 126.489 78.5976 126.737C78.9224 126.982 79.3201 127.105 79.7907 127.105C80.2813 127.105 80.6906 126.976 81.0187 126.717C81.3502 126.455 81.5988 126.104 81.7645 125.663C81.9335 125.219 82.018 124.725 82.018 124.182C82.018 123.645 81.9352 123.161 81.7694 122.73C81.607 122.296 81.3601 121.953 81.0287 121.701C80.7006 121.446 80.2879 121.318 79.7907 121.318C79.3135 121.318 78.9124 121.439 78.5876 121.681C78.2628 121.92 78.0175 122.254 77.8518 122.685C77.6861 123.113 77.6032 123.612 77.6032 124.182ZM84.9811 128V120.364H86.1544V123.685H86.93L89.6743 120.364H91.1856L88.1032 124.043L91.2254 128H89.714L87.2084 124.778H86.1544V128H84.9811ZM94.7478 128.179C94.2639 128.179 93.8247 128.088 93.4303 127.906C93.0359 127.72 92.7227 127.453 92.4907 127.105C92.2587 126.754 92.1427 126.33 92.1427 125.832C92.1427 125.395 92.2288 125.04 92.4012 124.768C92.5735 124.493 92.8039 124.278 93.0922 124.122C93.3806 123.966 93.6988 123.85 94.0468 123.774C94.3981 123.695 94.7511 123.632 95.1057 123.585C95.5698 123.526 95.9459 123.481 96.2343 123.451C96.526 123.418 96.7381 123.363 96.8706 123.287C97.0065 123.211 97.0745 123.078 97.0745 122.889V122.849C97.0745 122.359 96.9403 121.978 96.6718 121.706C96.4066 121.434 96.0039 121.298 95.4637 121.298C94.9036 121.298 94.4644 121.421 94.1462 121.666C93.828 121.911 93.6043 122.173 93.4751 122.452L92.3614 122.054C92.5603 121.59 92.8254 121.229 93.1569 120.97C93.4916 120.708 93.8562 120.526 94.2506 120.423C94.6483 120.317 95.0394 120.264 95.4239 120.264C95.6692 120.264 95.9509 120.294 96.2691 120.354C96.5906 120.41 96.9005 120.528 97.1988 120.707C97.5004 120.886 97.7506 121.156 97.9495 121.517C98.1483 121.878 98.2478 122.362 98.2478 122.969V128H97.0745V126.966H97.0148C96.9353 127.132 96.8027 127.309 96.6171 127.498C96.4315 127.687 96.1846 127.848 95.8763 127.98C95.5681 128.113 95.1919 128.179 94.7478 128.179ZM94.9268 127.125C95.3908 127.125 95.7819 127.034 96.1001 126.852C96.4215 126.669 96.6635 126.434 96.8259 126.146C96.9916 125.857 97.0745 125.554 97.0745 125.236V124.162C97.0248 124.222 96.9154 124.276 96.7464 124.326C96.5806 124.372 96.3884 124.414 96.1697 124.45C95.9542 124.483 95.7438 124.513 95.5383 124.54C95.3361 124.563 95.172 124.583 95.0461 124.599C94.7412 124.639 94.4561 124.704 94.191 124.793C93.9291 124.879 93.717 125.01 93.5546 125.186C93.3955 125.358 93.316 125.594 93.316 125.892C93.316 126.3 93.4668 126.608 93.7684 126.817C94.0733 127.022 94.4594 127.125 94.9268 127.125ZM103.511 130.188V126.906H104.148C104.304 126.744 104.438 126.568 104.551 126.379C104.663 126.19 104.761 125.967 104.844 125.708C104.93 125.446 105.003 125.128 105.063 124.754C105.122 124.376 105.175 123.92 105.222 123.386L105.48 120.364H110.332V126.906H111.506V130.188H110.332V128H104.685V130.188H103.511ZM105.48 126.906H109.159V121.457H106.574L106.375 123.386C106.292 124.185 106.189 124.883 106.067 125.479C105.944 126.076 105.749 126.552 105.48 126.906ZM116.165 128.159C115.476 128.159 114.871 127.995 114.351 127.667C113.834 127.339 113.429 126.88 113.138 126.29C112.849 125.7 112.705 125.01 112.705 124.222C112.705 123.426 112.849 122.732 113.138 122.138C113.429 121.545 113.834 121.085 114.351 120.756C114.871 120.428 115.476 120.264 116.165 120.264C116.855 120.264 117.458 120.428 117.975 120.756C118.495 121.085 118.9 121.545 119.188 122.138C119.48 122.732 119.626 123.426 119.626 124.222C119.626 125.01 119.48 125.7 119.188 126.29C118.9 126.88 118.495 127.339 117.975 127.667C117.458 127.995 116.855 128.159 116.165 128.159ZM116.165 127.105C116.689 127.105 117.12 126.971 117.458 126.702C117.796 126.434 118.046 126.081 118.209 125.643C118.371 125.206 118.452 124.732 118.452 124.222C118.452 123.711 118.371 123.236 118.209 122.795C118.046 122.354 117.796 121.998 117.458 121.726C117.12 121.454 116.689 121.318 116.165 121.318C115.642 121.318 115.211 121.454 114.873 121.726C114.535 121.998 114.284 122.354 114.122 122.795C113.96 123.236 113.878 123.711 113.878 124.222C113.878 124.732 113.96 125.206 114.122 125.643C114.284 126.081 114.535 126.434 114.873 126.702C115.211 126.971 115.642 127.105 116.165 127.105ZM124.519 128.159C123.803 128.159 123.187 127.99 122.669 127.652C122.152 127.314 121.755 126.848 121.476 126.255C121.198 125.662 121.059 124.984 121.059 124.222C121.059 123.446 121.201 122.762 121.486 122.168C121.775 121.572 122.176 121.106 122.689 120.771C123.206 120.433 123.81 120.264 124.499 120.264C125.036 120.264 125.52 120.364 125.951 120.562C126.382 120.761 126.735 121.04 127.01 121.398C127.285 121.756 127.455 122.173 127.522 122.651H126.348C126.259 122.303 126.06 121.994 125.752 121.726C125.447 121.454 125.036 121.318 124.519 121.318C124.062 121.318 123.66 121.437 123.316 121.676C122.974 121.911 122.708 122.245 122.515 122.675C122.326 123.103 122.232 123.605 122.232 124.182C122.232 124.772 122.325 125.286 122.51 125.723C122.699 126.161 122.964 126.5 123.306 126.742C123.651 126.984 124.055 127.105 124.519 127.105C124.824 127.105 125.101 127.052 125.349 126.946C125.598 126.84 125.808 126.688 125.981 126.489C126.153 126.29 126.276 126.051 126.348 125.773H127.522C127.455 126.223 127.291 126.629 127.03 126.991C126.771 127.349 126.428 127.634 126 127.846C125.576 128.055 125.082 128.159 124.519 128.159ZM128.635 121.457V120.364H134.84V121.457H132.334V128H131.161V121.457H128.635ZM137.307 130.864C137.108 130.864 136.931 130.847 136.775 130.814C136.619 130.784 136.512 130.754 136.452 130.724L136.75 129.69C137.035 129.763 137.287 129.79 137.506 129.77C137.725 129.75 137.919 129.652 138.088 129.477C138.26 129.304 138.417 129.024 138.56 128.636L138.779 128.04L135.955 120.364H137.228L139.335 126.449H139.415L141.523 120.364H142.796L139.554 129.114C139.408 129.508 139.228 129.835 139.012 130.093C138.797 130.355 138.547 130.549 138.262 130.675C137.98 130.801 137.662 130.864 137.307 130.864ZM144.344 128V120.364H150.35V128H149.177V121.457H145.518V128H144.344ZM157.604 123.645V124.739H153.388V123.645H157.604ZM153.666 120.364V128H152.493V120.364H153.666ZM158.498 120.364V128H157.325V120.364H158.498ZM163.744 128.159C163.054 128.159 162.449 127.995 161.929 127.667C161.412 127.339 161.007 126.88 160.716 126.29C160.427 125.7 160.283 125.01 160.283 124.222C160.283 123.426 160.427 122.732 160.716 122.138C161.007 121.545 161.412 121.085 161.929 120.756C162.449 120.428 163.054 120.264 163.744 120.264C164.433 120.264 165.036 120.428 165.553 120.756C166.074 121.085 166.478 121.545 166.766 122.138C167.058 122.732 167.204 123.426 167.204 124.222C167.204 125.01 167.058 125.7 166.766 126.29C166.478 126.88 166.074 127.339 165.553 127.667C165.036 127.995 164.433 128.159 163.744 128.159ZM163.744 127.105C164.267 127.105 164.698 126.971 165.036 126.702C165.374 126.434 165.624 126.081 165.787 125.643C165.949 125.206 166.03 124.732 166.03 124.222C166.03 123.711 165.949 123.236 165.787 122.795C165.624 122.354 165.374 121.998 165.036 121.726C164.698 121.454 164.267 121.318 163.744 121.318C163.22 121.318 162.789 121.454 162.451 121.726C162.113 121.998 161.863 122.354 161.7 122.795C161.538 123.236 161.457 123.711 161.457 124.222C161.457 124.732 161.538 125.206 161.7 125.643C161.863 126.081 162.113 126.434 162.451 126.702C162.789 126.971 163.22 127.105 163.744 127.105ZM172.097 128.159C171.381 128.159 170.765 127.99 170.248 127.652C169.731 127.314 169.333 126.848 169.054 126.255C168.776 125.662 168.637 124.984 168.637 124.222C168.637 123.446 168.779 122.762 169.064 122.168C169.353 121.572 169.754 121.106 170.267 120.771C170.785 120.433 171.388 120.264 172.077 120.264C172.614 120.264 173.098 120.364 173.529 120.562C173.96 120.761 174.313 121.04 174.588 121.398C174.863 121.756 175.034 122.173 175.1 122.651H173.927C173.837 122.303 173.638 121.994 173.33 121.726C173.025 121.454 172.614 121.318 172.097 121.318C171.64 121.318 171.239 121.437 170.894 121.676C170.553 121.911 170.286 122.245 170.093 122.675C169.905 123.103 169.81 123.605 169.81 124.182C169.81 124.772 169.903 125.286 170.089 125.723C170.277 126.161 170.543 126.5 170.884 126.742C171.229 126.984 171.633 127.105 172.097 127.105C172.402 127.105 172.679 127.052 172.927 126.946C173.176 126.84 173.386 126.688 173.559 126.489C173.731 126.29 173.854 126.051 173.927 125.773H175.1C175.034 126.223 174.87 126.629 174.608 126.991C174.349 127.349 174.006 127.634 173.579 127.846C173.154 128.055 172.66 128.159 172.097 128.159ZM176.214 121.457V120.364H182.418V121.457H179.912V128H178.739V121.457H176.214ZM185.303 126.27L188.982 120.364H190.334V128H189.161V122.094L185.502 128H184.13V120.364H185.303V126.27ZM200.597 126.409L203.261 120.364H204.375L201.074 128H200.119L196.878 120.364H197.972L200.597 126.409ZM197.594 120.364V128H196.421V120.364H197.594ZM203.6 128V120.364H204.773V128H203.6ZM210.122 128.159C209.386 128.159 208.752 127.997 208.218 127.672C207.688 127.344 207.278 126.886 206.99 126.3C206.705 125.71 206.563 125.024 206.563 124.241C206.563 123.459 206.705 122.77 206.99 122.173C207.278 121.573 207.68 121.106 208.193 120.771C208.71 120.433 209.314 120.264 210.003 120.264C210.401 120.264 210.793 120.33 211.181 120.463C211.569 120.596 211.922 120.811 212.24 121.109C212.558 121.404 212.812 121.795 213.001 122.283C213.19 122.77 213.284 123.37 213.284 124.082V124.58H207.398V123.565H212.091C212.091 123.134 212.005 122.75 211.832 122.412C211.663 122.074 211.421 121.807 211.107 121.612C210.795 121.416 210.427 121.318 210.003 121.318C209.536 121.318 209.131 121.434 208.79 121.666C208.452 121.895 208.192 122.193 208.009 122.561C207.827 122.929 207.736 123.323 207.736 123.744V124.42C207.736 124.997 207.835 125.486 208.034 125.887C208.236 126.285 208.516 126.588 208.874 126.797C209.232 127.002 209.648 127.105 210.122 127.105C210.43 127.105 210.709 127.062 210.957 126.976C211.209 126.886 211.426 126.754 211.609 126.578C211.791 126.399 211.932 126.177 212.031 125.912L213.165 126.23C213.046 126.615 212.845 126.953 212.563 127.244C212.282 127.533 211.934 127.758 211.519 127.92C211.105 128.08 210.639 128.159 210.122 128.159ZM218.171 128.159C217.455 128.159 216.839 127.99 216.322 127.652C215.805 127.314 215.407 126.848 215.129 126.255C214.85 125.662 214.711 124.984 214.711 124.222C214.711 123.446 214.854 122.762 215.139 122.168C215.427 121.572 215.828 121.106 216.342 120.771C216.859 120.433 217.462 120.264 218.151 120.264C218.688 120.264 219.172 120.364 219.603 120.562C220.034 120.761 220.387 121.04 220.662 121.398C220.937 121.756 221.108 122.173 221.174 122.651H220.001C219.911 122.303 219.712 121.994 219.404 121.726C219.099 121.454 218.688 121.318 218.171 121.318C217.714 121.318 217.313 121.437 216.968 121.676C216.627 121.911 216.36 122.245 216.168 122.675C215.979 123.103 215.884 123.605 215.884 124.182C215.884 124.772 215.977 125.286 216.163 125.723C216.352 126.161 216.617 126.5 216.958 126.742C217.303 126.984 217.707 127.105 218.171 127.105C218.476 127.105 218.753 127.052 219.002 126.946C219.25 126.84 219.461 126.688 219.633 126.489C219.805 126.29 219.928 126.051 220.001 125.773H221.174C221.108 126.223 220.944 126.629 220.682 126.991C220.423 127.349 220.08 127.634 219.653 127.846C219.229 128.055 218.735 128.159 218.171 128.159ZM222.288 121.457V120.364H228.492V121.457H225.987V128H224.813V121.457H222.288ZM232.054 128.179C231.571 128.179 231.131 128.088 230.737 127.906C230.343 127.72 230.029 127.453 229.797 127.105C229.565 126.754 229.449 126.33 229.449 125.832C229.449 125.395 229.535 125.04 229.708 124.768C229.88 124.493 230.111 124.278 230.399 124.122C230.687 123.966 231.005 123.85 231.353 123.774C231.705 123.695 232.058 123.632 232.412 123.585C232.876 123.526 233.253 123.481 233.541 123.451C233.833 123.418 234.045 123.363 234.177 123.287C234.313 123.211 234.381 123.078 234.381 122.889V122.849C234.381 122.359 234.247 121.978 233.978 121.706C233.713 121.434 233.311 121.298 232.77 121.298C232.21 121.298 231.771 121.421 231.453 121.666C231.135 121.911 230.911 122.173 230.782 122.452L229.668 122.054C229.867 121.59 230.132 121.229 230.464 120.97C230.798 120.708 231.163 120.526 231.557 120.423C231.955 120.317 232.346 120.264 232.731 120.264C232.976 120.264 233.258 120.294 233.576 120.354C233.897 120.41 234.207 120.528 234.505 120.707C234.807 120.886 235.057 121.156 235.256 121.517C235.455 121.878 235.554 122.362 235.554 122.969V128H234.381V126.966H234.321C234.242 127.132 234.109 127.309 233.924 127.498C233.738 127.687 233.491 127.848 233.183 127.98C232.875 128.113 232.499 128.179 232.054 128.179ZM232.233 127.125C232.697 127.125 233.089 127.034 233.407 126.852C233.728 126.669 233.97 126.434 234.133 126.146C234.298 125.857 234.381 125.554 234.381 125.236V124.162C234.331 124.222 234.222 124.276 234.053 124.326C233.887 124.372 233.695 124.414 233.476 124.45C233.261 124.483 233.05 124.513 232.845 124.54C232.643 124.563 232.479 124.583 232.353 124.599C232.048 124.639 231.763 124.704 231.498 124.793C231.236 124.879 231.024 125.01 230.861 125.186C230.702 125.358 230.623 125.594 230.623 125.892C230.623 126.3 230.773 126.608 231.075 126.817C231.38 127.022 231.766 127.125 232.233 127.125Z" fill="#655AA8"/>
</svg>
