<svg width="48" height="49" viewBox="0 0 48 49" fill="none" xmlns="http://www.w3.org/2000/svg">
<path d="M33.6004 24.7997C33.6004 30.1016 29.3023 34.3997 24.0004 34.3997C18.6985 34.3997 14.4004 30.1016 14.4004 24.7997C14.4004 19.4978 18.6985 15.1997 24.0004 15.1997C29.3023 15.1997 33.6004 19.4978 33.6004 24.7997ZM17.2804 24.7997C17.2804 28.5111 20.289 31.5197 24.0004 31.5197C27.7117 31.5197 30.7204 28.5111 30.7204 24.7997C30.7204 21.0884 27.7117 18.0797 24.0004 18.0797C20.289 18.0797 17.2804 21.0884 17.2804 24.7997Z" fill="#AA9DF6"/>
<path d="M21.2329 22.9217H22.2456C22.4081 22.9217 22.5636 22.9876 22.6766 23.1043L24.4193 24.9038C24.673 25.1658 25.0999 25.1427 25.3239 24.8547L28.9196 20.2316C29.0333 20.0855 29.2081 20 29.3933 20H29.973C30.4723 20 30.7532 20.5743 30.4466 20.9684L25.3203 27.5594C25.0976 27.8457 24.6737 27.8705 24.4192 27.612L20.8054 23.9428C20.4318 23.5635 20.7005 22.9217 21.2329 22.9217Z" fill="#FFC001"/>
</svg>
